<?xml version="1.0" encoding="UTF-8"?>
<svg role="img" aria-labelledby="title" xmlns="http://www.w3.org/2000/svg" xmlns:xlink="http://www.w3.org/1999/xlink" width="2039pt" height="2208pt" viewBox="0 0 2039 2208">
<title id="title">Calculator Icon</title>
<path fill-rule="nonzero" fill="rgb(56.15387%, 42.687988%, 74.214172%)" fill-opacity="1" d="M 1748.171875 1960.160156 C 1748.800781 1959.179688 1749.421875 1958.179688 1750.03125 1957.179688 C 1750.640625 1956.179688 1751.238281 1955.171875 1751.820312 1954.148438 C 1752.410156 1953.128906 1752.980469 1952.101562 1753.539062 1951.070312 C 1754.101562 1950.039062 1754.648438 1949 1755.191406 1947.949219 C 1755.988281 1946.378906 1756.769531 1944.789062 1757.519531 1943.179688 C 1757.769531 1942.648438 1758.019531 1942.109375 1758.261719 1941.570312 C 1758.75 1940.488281 1759.21875 1939.410156 1759.679688 1938.320312 C 1760.371094 1936.679688 1761.039062 1935.03125 1761.671875 1933.371094 C 1762.300781 1931.699219 1762.910156 1930.019531 1763.480469 1928.328125 C 1763.859375 1927.199219 1764.230469 1926.058594 1764.589844 1924.921875 C 1764.941406 1923.78125 1765.28125 1922.628906 1765.609375 1921.46875 C 1766.589844 1918.011719 1767.449219 1914.5 1768.179688 1910.941406 C 1768.421875 1909.75 1768.648438 1908.558594 1768.859375 1907.359375 C 1770.359375 1898.980469 1771.140625 1890.351562 1771.140625 1881.539062 L 1771.140625 455.988281 C 1771.140625 440.480469 1769.46875 425.351562 1766.300781 410.78125 C 1765.929688 409.070312 1765.53125 407.359375 1765.121094 405.671875 C 1764.078125 401.421875 1762.921875 397.230469 1761.628906 393.089844 C 1761.109375 391.429688 1760.578125 389.78125 1760.03125 388.148438 C 1759.46875 386.511719 1758.898438 384.878906 1758.300781 383.261719 C 1757.410156 380.828125 1756.480469 378.421875 1755.511719 376.03125 C 1753.878906 372.050781 1752.140625 368.128906 1750.28125 364.28125 C 1749.539062 362.738281 1748.78125 361.210938 1748 359.691406 C 1746.441406 356.648438 1744.808594 353.648438 1743.109375 350.699219 C 1742.261719 349.21875 1741.398438 347.761719 1740.511719 346.300781 C 1740.070312 345.570312 1739.628906 344.851562 1739.179688 344.128906 C 1738.28125 342.691406 1737.359375 341.261719 1736.429688 339.839844 C 1735.960938 339.128906 1735.488281 338.421875 1735.011719 337.71875 C 1734.058594 336.308594 1733.101562 334.921875 1732.109375 333.53125 C 1730.640625 331.460938 1729.128906 329.421875 1727.578125 327.398438 C 1725.519531 324.710938 1723.390625 322.070312 1721.210938 319.480469 C 1719.019531 316.898438 1716.769531 314.371094 1714.46875 311.890625 C 1713.308594 310.648438 1712.148438 309.429688 1710.960938 308.21875 C 1708.601562 305.800781 1706.179688 303.429688 1703.699219 301.128906 C 1701.851562 299.398438 1699.960938 297.699219 1698.039062 296.039062 C 1696.761719 294.929688 1695.46875 293.839844 1694.160156 292.761719 C 1692.851562 291.679688 1691.53125 290.621094 1690.199219 289.570312 C 1688.871094 288.519531 1687.53125 287.488281 1686.171875 286.480469 C 1685.488281 285.96875 1684.808594 285.46875 1684.121094 284.96875 C 1682.75 283.96875 1681.371094 282.980469 1679.980469 282.019531 C 1679.28125 281.53125 1678.578125 281.058594 1677.871094 280.578125 C 1676.46875 279.628906 1675.050781 278.699219 1673.621094 277.78125 C 1671.828125 276.628906 1670.019531 275.511719 1668.199219 274.421875 C 1666.371094 273.328125 1664.53125 272.261719 1662.671875 271.21875 C 1660.441406 269.96875 1658.179688 268.761719 1655.898438 267.601562 C 1649.589844 264.359375 1643.078125 261.429688 1636.421875 258.828125 C 1635.460938 258.460938 1634.511719 258.101562 1633.550781 257.738281 C 1633.070312 257.558594 1632.589844 257.378906 1632.109375 257.210938 C 1631.140625 256.859375 1630.179688 256.511719 1629.210938 256.171875 C 1628.730469 256.011719 1628.238281 255.839844 1627.75 255.671875 C 1626.78125 255.339844 1625.808594 255.019531 1624.828125 254.699219 C 1624.339844 254.539062 1623.851562 254.390625 1623.359375 254.230469 C 1621.398438 253.609375 1619.421875 253.019531 1617.429688 252.460938 C 1616.441406 252.171875 1615.441406 251.898438 1614.441406 251.628906 C 1613.441406 251.359375 1612.441406 251.101562 1611.441406 250.851562 C 1610.429688 250.601562 1609.421875 250.351562 1608.410156 250.109375 C 1601.339844 248.441406 1594.121094 247.121094 1586.789062 246.179688 C 1585.738281 246.050781 1584.691406 245.921875 1583.640625 245.800781 C 1575.75 244.910156 1567.730469 244.449219 1559.601562 244.449219 L 623.925781 244.449219 C 507.09375 244.449219 412.386719 339.160156 412.386719 455.988281 L 412.386719 1815.871094 C 412.386719 1845.988281 418.679688 1874.640625 430.023438 1900.578125 C 431.054688 1902.941406 432.128906 1905.269531 433.242188 1907.578125 C 440.296875 1922.230469 448.988281 1935.929688 459.082031 1948.460938 C 459.613281 1949.121094 460.148438 1949.78125 460.6875 1950.429688 C 461.765625 1951.738281 462.855469 1953.03125 463.964844 1954.308594 C 466.183594 1956.871094 468.457031 1959.378906 470.792969 1961.820312 C 471.960938 1963.050781 473.140625 1964.261719 474.339844 1965.449219 C 476.730469 1967.851562 479.179688 1970.179688 481.683594 1972.460938 C 482.9375 1973.601562 484.203125 1974.71875 485.480469 1975.828125 C 495.714844 1984.691406 506.808594 1992.589844 518.621094 1999.390625 C 520.097656 2000.238281 521.585938 2001.070312 523.085938 2001.878906 C 523.835938 2002.289062 524.585938 2002.691406 525.339844 2003.089844 C 526.851562 2003.890625 528.371094 2004.671875 529.902344 2005.429688 C 534.492188 2007.710938 539.179688 2009.828125 543.953125 2011.78125 C 545.546875 2012.429688 547.148438 2013.058594 548.757812 2013.671875 C 553.589844 2015.511719 558.507812 2017.179688 563.5 2018.660156 C 566.828125 2019.648438 570.191406 2020.558594 573.589844 2021.390625 C 576.984375 2022.21875 580.410156 2022.96875 583.871094 2023.628906 C 596.835938 2026.109375 610.222656 2027.410156 623.914062 2027.410156 L 667.839844 2027.410156 C 669.003906 2027.410156 670.171875 2027.410156 671.339844 2027.410156 C 698.230469 2027.410156 726.570312 2027.410156 756.039062 2027.410156 C 757.320312 2027.410156 758.601562 2027.410156 759.886719 2027.410156 L 839.316406 2027.410156 C 840.675781 2027.410156 842.035156 2027.410156 843.398438 2027.410156 C 892.429688 2027.410156 943.457031 2027.410156 995.25 2027.410156 C 996.6875 2027.410156 998.128906 2027.410156 999.570312 2027.410156 C 1022.609375 2027.410156 1045.789062 2027.410156 1069.011719 2027.410156 C 1070.460938 2027.410156 1071.910156 2027.410156 1073.359375 2027.410156 C 1116.898438 2027.410156 1160.539062 2027.410156 1203.570312 2027.410156 C 1205 2027.410156 1206.429688 2027.410156 1207.871094 2027.410156 C 1246.550781 2027.410156 1284.71875 2027.410156 1321.851562 2027.410156 C 1323.21875 2027.410156 1324.601562 2027.410156 1325.96875 2027.410156 C 1363.019531 2027.410156 1399.011719 2027.410156 1433.421875 2027.410156 C 1434.699219 2027.410156 1435.96875 2027.410156 1437.238281 2027.410156 C 1452.480469 2027.410156 1467.410156 2027.410156 1481.96875 2027.410156 C 1483.179688 2027.410156 1484.390625 2027.410156 1485.601562 2027.410156 L 1524.53125 2027.410156 C 1525.679688 2027.410156 1526.820312 2027.410156 1527.96875 2027.410156 C 1541.691406 2027.410156 1555.011719 2027.410156 1567.859375 2027.410156 C 1568.929688 2027.410156 1570 2027.410156 1571.070312 2027.410156 L 1605.011719 2027.410156 C 1606 2027.410156 1606.988281 2027.410156 1607.980469 2027.410156 L 1625.308594 2027.410156 C 1643.359375 2027.410156 1660.648438 2024.128906 1676.609375 2018.128906 L 1677.929688 2017.621094 C 1682.351562 2015.921875 1686.648438 2014 1690.839844 2011.890625 C 1693.359375 2010.621094 1695.828125 2009.28125 1698.261719 2007.878906 C 1699.480469 2007.171875 1700.679688 2006.449219 1701.871094 2005.71875 C 1705.050781 2003.75 1708.148438 2001.671875 1711.160156 1999.46875 C 1712.578125 1998.441406 1713.96875 1997.378906 1715.351562 1996.300781 C 1717.648438 1994.488281 1719.890625 1992.621094 1722.070312 1990.679688 C 1722.941406 1989.910156 1723.800781 1989.121094 1724.660156 1988.328125 C 1725.511719 1987.53125 1726.359375 1986.730469 1727.191406 1985.910156 C 1728.019531 1985.101562 1728.851562 1984.269531 1729.660156 1983.441406 C 1730.890625 1982.191406 1732.078125 1980.910156 1733.261719 1979.621094 C 1734.050781 1978.761719 1734.820312 1977.878906 1735.578125 1977 C 1736.351562 1976.121094 1737.101562 1975.230469 1737.851562 1974.328125 C 1738.589844 1973.429688 1739.320312 1972.519531 1740.039062 1971.601562 C 1740.761719 1970.679688 1741.46875 1969.75 1742.171875 1968.820312 C 1742.871094 1967.878906 1743.558594 1966.941406 1744.238281 1965.980469 C 1745.261719 1964.550781 1746.25 1963.101562 1747.210938 1961.640625 C 1747.539062 1961.148438 1747.851562 1960.660156 1748.171875 1960.160156 "/>
<path fill-rule="nonzero" fill="rgb(53.266907%, 38.05542%, 71.688843%)" fill-opacity="1" d="M 1765.121094 405.671875 C 1764.078125 401.421875 1762.921875 397.230469 1761.628906 393.089844 C 1761.109375 391.429688 1760.578125 389.78125 1760.03125 388.148438 C 1759.46875 386.511719 1758.898438 384.878906 1758.300781 383.261719 C 1757.410156 380.828125 1756.480469 378.421875 1755.511719 376.03125 C 1753.878906 372.050781 1752.140625 368.128906 1750.28125 364.28125 C 1749.539062 362.738281 1748.78125 361.210938 1748 359.691406 C 1746.441406 356.648438 1744.808594 353.648438 1743.109375 350.699219 C 1742.261719 349.21875 1741.398438 347.761719 1740.511719 346.300781 C 1740.070312 345.570312 1739.628906 344.851562 1739.179688 344.128906 C 1738.28125 342.691406 1737.359375 341.261719 1736.429688 339.839844 C 1735.960938 339.128906 1735.488281 338.421875 1735.011719 337.71875 C 1734.058594 336.308594 1733.101562 334.921875 1732.109375 333.53125 C 1730.640625 331.460938 1729.128906 329.421875 1727.578125 327.398438 C 1725.519531 324.710938 1723.390625 322.070312 1721.210938 319.480469 C 1719.019531 316.898438 1716.769531 314.371094 1714.46875 311.890625 C 1713.308594 310.648438 1712.148438 309.429688 1710.960938 308.21875 C 1708.601562 305.800781 1706.179688 303.429688 1703.699219 301.128906 C 1701.851562 299.398438 1699.960938 297.699219 1698.039062 296.039062 C 1696.761719 294.929688 1695.46875 293.839844 1694.160156 292.761719 C 1692.851562 291.679688 1691.53125 290.621094 1690.199219 289.570312 C 1688.871094 288.519531 1687.53125 287.488281 1686.171875 286.480469 C 1685.488281 285.96875 1684.808594 285.46875 1684.121094 284.96875 C 1682.75 283.96875 1681.371094 282.980469 1679.980469 282.019531 C 1679.28125 281.53125 1678.578125 281.058594 1677.871094 280.578125 C 1676.46875 279.628906 1675.050781 278.699219 1673.621094 277.78125 C 1670.039062 275.488281 1666.390625 273.300781 1662.671875 271.21875 C 1660.441406 269.96875 1658.179688 268.761719 1655.898438 267.601562 C 1627.019531 252.800781 1594.28125 244.449219 1559.601562 244.449219 L 1350.230469 244.449219 C 1339.441406 269.070312 1331.011719 294.28125 1339.011719 323.601562 C 1349.660156 357.328125 1366.378906 387.410156 1384.820312 416.351562 L 1543.300781 416.351562 C 1596.820312 416.351562 1640.210938 459.738281 1640.210938 513.261719 L 1640.210938 801.910156 C 1640.210938 855.441406 1596.820312 898.828125 1543.300781 898.828125 L 1482.988281 898.828125 C 1467.960938 930.398438 1448.910156 958.820312 1427.128906 985.171875 C 1438.328125 977.941406 1451.671875 973.730469 1465.988281 973.730469 L 1529.359375 973.730469 C 1566.921875 973.730469 1597.730469 1002.628906 1600.78125 1039.410156 L 1600.789062 1039.570312 L 1600.859375 1040.578125 L 1600.871094 1040.691406 L 1600.941406 1041.808594 L 1600.941406 1041.960938 L 1600.980469 1042.878906 L 1600.988281 1043.199219 L 1601.011719 1043.988281 L 1601.019531 1044.320312 L 1601.019531 1045.398438 C 1601.019531 1054.679688 1599.261719 1063.539062 1596.050781 1071.679688 C 1595.628906 1072.761719 1595.171875 1073.828125 1594.691406 1074.890625 C 1594.449219 1075.421875 1594.210938 1075.949219 1593.960938 1076.46875 C 1593.710938 1076.988281 1593.449219 1077.511719 1593.179688 1078.03125 C 1592.921875 1078.539062 1592.648438 1079.050781 1592.371094 1079.558594 L 1591.960938 1080.320312 C 1591.679688 1080.820312 1591.390625 1081.320312 1591.089844 1081.820312 L 1590.648438 1082.558594 C 1590.351562 1083.050781 1590.050781 1083.539062 1589.730469 1084.03125 C 1589.269531 1084.75 1588.789062 1085.46875 1588.300781 1086.179688 C 1587.96875 1086.648438 1587.640625 1087.121094 1587.300781 1087.589844 C 1586.621094 1088.511719 1585.921875 1089.421875 1585.199219 1090.320312 C 1584.660156 1090.988281 1584.109375 1091.648438 1583.550781 1092.300781 L 1582.410156 1093.589844 L 1581.238281 1094.839844 L 1580.03125 1096.070312 L 1578.800781 1097.28125 L 1578.179688 1097.871094 C 1576.078125 1099.820312 1573.871094 1101.648438 1571.539062 1103.339844 C 1571.078125 1103.679688 1570.609375 1104.011719 1570.140625 1104.339844 C 1569.199219 1104.988281 1568.230469 1105.628906 1567.261719 1106.238281 C 1565.300781 1107.460938 1563.289062 1108.578125 1561.210938 1109.621094 C 1560.691406 1109.871094 1560.171875 1110.128906 1559.640625 1110.371094 C 1557.800781 1111.230469 1555.921875 1112.011719 1554 1112.71875 C 1551.53125 1113.621094 1549 1114.390625 1546.410156 1115.019531 C 1545.261719 1115.300781 1544.101562 1115.558594 1542.929688 1115.78125 C 1538.53125 1116.621094 1534 1117.058594 1529.359375 1117.058594 L 1464.910156 1117.058594 L 1464.578125 1117.050781 L 1463.78125 1117.03125 L 1463.46875 1117.019531 L 1462.550781 1116.980469 L 1462.390625 1116.980469 L 1461.269531 1116.910156 L 1461.171875 1116.898438 L 1460.148438 1116.828125 L 1459.988281 1116.820312 L 1458.960938 1116.71875 L 1458.890625 1116.71875 C 1422.640625 1113.148438 1394.320312 1082.578125 1394.320312 1045.398438 C 1394.320312 1034.148438 1396.921875 1023.511719 1401.53125 1014.039062 C 1339.648438 1079.390625 1262.511719 1133.410156 1193.648438 1195.710938 C 1192.648438 1196.621094 1191.660156 1197.558594 1190.691406 1198.5 L 1270.769531 1198.5 C 1298.839844 1198.5 1322.378906 1217.898438 1328.730469 1244.03125 L 1328.730469 1244.050781 C 1328.949219 1244.929688 1329.140625 1245.820312 1329.320312 1246.71875 L 1329.398438 1247.160156 L 1329.53125 1247.878906 L 1329.660156 1248.648438 L 1329.789062 1249.5 L 1329.890625 1250.238281 L 1329.960938 1250.789062 L 1330.101562 1251.949219 L 1330.128906 1252.328125 L 1330.21875 1253.320312 L 1330.261719 1253.769531 L 1330.328125 1255.011719 L 1330.351562 1255.269531 L 1330.390625 1256.398438 L 1330.398438 1256.820312 L 1330.421875 1258.070312 L 1330.421875 1326.328125 C 1330.421875 1334.050781 1328.949219 1341.429688 1326.28125 1348.199219 C 1323.25 1355.871094 1318.679688 1362.769531 1312.949219 1368.5 L 1311.921875 1369.5 C 1311.230469 1370.160156 1310.519531 1370.800781 1309.800781 1371.429688 C 1309.078125 1372.050781 1308.351562 1372.660156 1307.589844 1373.25 C 1306.839844 1373.839844 1306.078125 1374.421875 1305.300781 1374.96875 C 1304.519531 1375.53125 1303.71875 1376.058594 1302.921875 1376.578125 C 1301.300781 1377.609375 1299.640625 1378.570312 1297.921875 1379.449219 L 1296.628906 1380.089844 C 1295.761719 1380.511719 1294.878906 1380.910156 1293.988281 1381.289062 C 1291.308594 1382.421875 1288.53125 1383.359375 1285.671875 1384.101562 C 1283.289062 1384.710938 1280.851562 1385.179688 1278.359375 1385.5 C 1277.871094 1385.558594 1277.371094 1385.621094 1276.871094 1385.671875 C 1274.859375 1385.871094 1272.828125 1385.980469 1270.769531 1385.980469 L 1183.371094 1385.980469 L 1182.011719 1385.960938 L 1181.648438 1385.949219 L 1180.328125 1385.898438 L 1180.160156 1385.890625 L 1179.011719 1385.820312 L 1178.578125 1385.78125 L 1177.390625 1385.679688 L 1176.929688 1385.628906 L 1176.101562 1385.53125 L 1175.511719 1385.460938 L 1174.828125 1385.359375 L 1173.648438 1385.179688 L 1173.328125 1385.128906 C 1167.261719 1384.101562 1161.5 1382.160156 1156.210938 1379.449219 C 1159.328125 1389.738281 1163.191406 1399.519531 1167.699219 1408.539062 C 1173.058594 1421.050781 1177.921875 1433.78125 1182.21875 1446.660156 L 1183.371094 1446.648438 L 1270.769531 1446.648438 C 1298.839844 1446.648438 1322.378906 1466.050781 1328.730469 1492.171875 L 1328.730469 1492.191406 C 1328.949219 1493.078125 1329.140625 1493.96875 1329.320312 1494.859375 L 1329.398438 1495.308594 L 1329.53125 1496.019531 L 1329.660156 1496.789062 L 1329.789062 1497.640625 L 1329.890625 1498.378906 L 1329.960938 1498.941406 L 1330.101562 1500.101562 L 1330.128906 1500.480469 L 1330.21875 1501.46875 L 1330.261719 1501.910156 L 1330.328125 1503.160156 L 1330.351562 1503.410156 L 1330.390625 1504.539062 L 1330.398438 1504.960938 L 1330.421875 1506.21875 L 1330.421875 1574.46875 C 1330.421875 1582.191406 1328.949219 1589.570312 1326.28125 1596.351562 C 1323.25 1604.019531 1318.679688 1610.921875 1312.949219 1616.648438 L 1311.921875 1617.648438 C 1311.230469 1618.308594 1310.519531 1618.949219 1309.800781 1619.578125 C 1309.078125 1620.199219 1308.351562 1620.808594 1307.589844 1621.398438 C 1306.839844 1621.988281 1306.078125 1622.558594 1305.300781 1623.121094 C 1304.519531 1623.671875 1303.71875 1624.210938 1302.921875 1624.71875 C 1301.300781 1625.761719 1299.640625 1626.71875 1297.921875 1627.601562 L 1296.628906 1628.238281 C 1295.761719 1628.660156 1294.878906 1629.058594 1293.988281 1629.429688 C 1291.308594 1630.570312 1288.53125 1631.511719 1285.671875 1632.238281 C 1283.289062 1632.859375 1280.851562 1633.328125 1278.359375 1633.640625 C 1277.871094 1633.710938 1277.371094 1633.761719 1276.871094 1633.808594 C 1274.859375 1634.019531 1272.828125 1634.121094 1270.769531 1634.121094 L 1199.820312 1634.121094 C 1195.769531 1655.441406 1189.21875 1675.859375 1179.890625 1694.898438 C 1181.039062 1694.828125 1182.199219 1694.789062 1183.371094 1694.789062 L 1270.769531 1694.789062 C 1298.839844 1694.789062 1322.378906 1714.191406 1328.730469 1740.320312 L 1328.730469 1740.339844 C 1328.949219 1741.21875 1329.140625 1742.109375 1329.320312 1743.011719 L 1329.398438 1743.449219 L 1329.53125 1744.171875 L 1329.660156 1744.941406 L 1329.789062 1745.789062 L 1329.890625 1746.53125 L 1329.960938 1747.078125 L 1330.101562 1748.238281 L 1330.128906 1748.621094 L 1330.21875 1749.609375 L 1330.261719 1750.058594 L 1330.328125 1751.300781 L 1330.351562 1751.558594 L 1330.390625 1752.691406 L 1330.398438 1753.109375 L 1330.421875 1754.371094 L 1330.421875 1822.621094 C 1330.421875 1830.339844 1328.949219 1837.71875 1326.28125 1844.488281 C 1323.25 1852.171875 1318.679688 1859.058594 1312.949219 1864.800781 L 1311.921875 1865.800781 C 1311.230469 1866.460938 1310.519531 1867.101562 1309.800781 1867.71875 C 1309.078125 1868.351562 1308.351562 1868.960938 1307.589844 1869.550781 C 1306.839844 1870.140625 1306.078125 1870.710938 1305.300781 1871.261719 C 1304.519531 1871.820312 1303.71875 1872.351562 1302.921875 1872.871094 C 1301.300781 1873.910156 1299.640625 1874.871094 1297.921875 1875.738281 L 1296.628906 1876.390625 C 1295.761719 1876.808594 1294.878906 1877.199219 1293.988281 1877.578125 C 1291.308594 1878.710938 1288.53125 1879.660156 1285.671875 1880.390625 C 1283.289062 1881 1280.851562 1881.46875 1278.359375 1881.789062 C 1277.871094 1881.851562 1277.371094 1881.910156 1276.871094 1881.960938 C 1274.859375 1882.171875 1272.828125 1882.269531 1270.769531 1882.269531 L 1183.371094 1882.269531 L 1182.011719 1882.25 L 1181.648438 1882.238281 L 1180.328125 1882.191406 L 1180.160156 1882.179688 L 1179.011719 1882.109375 L 1178.578125 1882.078125 L 1177.390625 1881.96875 L 1176.929688 1881.921875 L 1176.101562 1881.828125 L 1175.511719 1881.75 L 1174.828125 1881.660156 L 1173.648438 1881.480469 L 1173.328125 1881.421875 C 1145.160156 1876.648438 1123.71875 1852.140625 1123.71875 1822.621094 L 1123.71875 1765.25 C 1108.058594 1777.859375 1089.910156 1788.851562 1069.070312 1797.878906 C 1065.988281 1799.109375 1062.898438 1800.300781 1059.808594 1801.460938 L 1059.808594 1822.621094 C 1059.808594 1829.828125 1058.53125 1836.730469 1056.191406 1843.128906 C 1055.691406 1844.5 1055.140625 1845.851562 1054.539062 1847.171875 C 1053.941406 1848.488281 1053.300781 1849.78125 1052.609375 1851.050781 C 1052.148438 1851.898438 1051.671875 1852.730469 1051.171875 1853.550781 C 1050.179688 1855.191406 1049.101562 1856.78125 1047.960938 1858.308594 C 1047.390625 1859.070312 1046.800781 1859.828125 1046.191406 1860.558594 C 1045.28125 1861.671875 1044.328125 1862.738281 1043.339844 1863.769531 C 1039.71875 1867.570312 1035.601562 1870.890625 1031.089844 1873.628906 L 1029.851562 1874.371094 C 1028.191406 1875.320312 1026.46875 1876.199219 1024.710938 1877 C 1021.628906 1878.390625 1018.398438 1879.53125 1015.070312 1880.390625 C 1010.300781 1881.621094 1005.308594 1882.269531 1000.160156 1882.269531 L 912.757812 1882.269531 L 911.40625 1882.25 L 911.046875 1882.238281 L 909.71875 1882.191406 L 909.558594 1882.179688 L 908.398438 1882.109375 L 907.972656 1882.078125 L 906.761719 1881.96875 L 906.332031 1881.921875 L 905.480469 1881.828125 L 904.90625 1881.75 L 904.191406 1881.648438 L 903.054688 1881.480469 L 902.710938 1881.421875 C 875.703125 1876.839844 854.878906 1854.109375 853.21875 1826.21875 C 831.691406 1823.878906 810.3125 1820.121094 789.203125 1815.070312 L 789.203125 1822.621094 C 789.203125 1830.339844 787.734375 1837.71875 785.0625 1844.488281 C 784.707031 1845.390625 784.332031 1846.289062 783.933594 1847.171875 C 780.945312 1853.769531 776.789062 1859.738281 771.730469 1864.800781 C 769.371094 1867.160156 766.8125 1869.320312 764.082031 1871.261719 C 763.304688 1871.820312 762.511719 1872.351562 761.703125 1872.871094 C 760.894531 1873.390625 760.074219 1873.890625 759.242188 1874.371094 C 758.410156 1874.839844 757.566406 1875.300781 756.707031 1875.738281 C 755.851562 1876.179688 754.980469 1876.601562 754.101562 1877 C 746.613281 1880.390625 738.304688 1882.269531 729.554688 1882.269531 L 642.148438 1882.269531 L 640.796875 1882.25 L 640.441406 1882.238281 L 639.109375 1882.191406 L 638.953125 1882.179688 L 637.789062 1882.109375 L 637.367188 1882.078125 L 636.144531 1881.96875 L 635.730469 1881.921875 L 634.871094 1881.828125 L 634.300781 1881.75 L 633.566406 1881.648438 L 632.457031 1881.480469 L 632.097656 1881.421875 C 603.941406 1876.640625 582.5 1852.140625 582.5 1822.621094 L 582.5 1754.449219 C 582.5 1743.558594 585.417969 1733.359375 590.511719 1724.570312 C 517.460938 1674.261719 458.527344 1610.699219 412.386719 1538.621094 L 412.386719 1815.871094 C 412.386719 1845.988281 418.679688 1874.640625 430.023438 1900.578125 C 431.054688 1902.941406 432.128906 1905.269531 433.242188 1907.578125 C 440.296875 1922.230469 448.988281 1935.929688 459.082031 1948.460938 C 459.613281 1949.121094 460.148438 1949.78125 460.6875 1950.429688 C 461.765625 1951.738281 462.855469 1953.03125 463.964844 1954.308594 C 466.183594 1956.871094 468.457031 1959.378906 470.792969 1961.820312 C 471.960938 1963.050781 473.140625 1964.261719 474.339844 1965.449219 C 476.730469 1967.851562 479.179688 1970.179688 481.683594 1972.460938 C 482.9375 1973.601562 484.203125 1974.71875 485.480469 1975.828125 C 495.714844 1984.691406 506.808594 1992.589844 518.621094 1999.390625 C 520.097656 2000.238281 521.585938 2001.070312 523.085938 2001.878906 C 523.835938 2002.289062 524.585938 2002.691406 525.339844 2003.089844 C 526.851562 2003.890625 528.371094 2004.671875 529.902344 2005.429688 C 534.492188 2007.710938 539.179688 2009.828125 543.953125 2011.78125 C 545.546875 2012.429688 547.148438 2013.058594 548.757812 2013.671875 C 553.589844 2015.511719 558.507812 2017.179688 563.5 2018.660156 C 566.828125 2019.648438 570.191406 2020.558594 573.589844 2021.390625 C 576.984375 2022.21875 580.410156 2022.96875 583.871094 2023.628906 C 596.835938 2026.109375 610.222656 2027.410156 623.914062 2027.410156 L 667.839844 2027.410156 C 669.003906 2027.410156 670.171875 2027.410156 671.339844 2027.410156 C 698.230469 2027.410156 726.570312 2027.410156 756.039062 2027.410156 C 757.320312 2027.410156 758.601562 2027.410156 759.886719 2027.410156 L 839.316406 2027.410156 C 840.675781 2027.410156 842.035156 2027.410156 843.398438 2027.410156 C 892.429688 2027.410156 943.457031 2027.410156 995.25 2027.410156 C 996.6875 2027.410156 998.128906 2027.410156 999.570312 2027.410156 C 1022.609375 2027.410156 1045.789062 2027.410156 1069.011719 2027.410156 C 1070.460938 2027.410156 1071.910156 2027.410156 1073.359375 2027.410156 C 1116.898438 2027.410156 1160.539062 2027.410156 1203.570312 2027.410156 C 1205 2027.410156 1206.429688 2027.410156 1207.871094 2027.410156 C 1246.550781 2027.410156 1284.71875 2027.410156 1321.851562 2027.410156 C 1323.21875 2027.410156 1324.601562 2027.410156 1325.96875 2027.410156 C 1363.019531 2027.410156 1399.011719 2027.410156 1433.421875 2027.410156 C 1434.699219 2027.410156 1435.96875 2027.410156 1437.238281 2027.410156 C 1452.480469 2027.410156 1467.410156 2027.410156 1481.96875 2027.410156 C 1483.179688 2027.410156 1484.390625 2027.410156 1485.601562 2027.410156 L 1524.53125 2027.410156 C 1525.679688 2027.410156 1526.820312 2027.410156 1527.96875 2027.410156 C 1541.691406 2027.410156 1555.011719 2027.410156 1567.859375 2027.410156 C 1568.929688 2027.410156 1570 2027.410156 1571.070312 2027.410156 L 1605.011719 2027.410156 C 1606 2027.410156 1606.988281 2027.410156 1607.980469 2027.410156 L 1625.308594 2027.410156 C 1657.410156 2027.410156 1687.078125 2017.039062 1711.160156 1999.46875 C 1712.578125 1998.441406 1713.96875 1997.378906 1715.351562 1996.300781 C 1717.648438 1994.488281 1719.890625 1992.621094 1722.070312 1990.679688 C 1722.941406 1989.910156 1723.800781 1989.121094 1724.660156 1988.328125 C 1725.511719 1987.53125 1726.359375 1986.730469 1727.191406 1985.910156 C 1728.019531 1985.101562 1728.851562 1984.269531 1729.660156 1983.441406 C 1730.890625 1982.191406 1732.078125 1980.910156 1733.261719 1979.621094 C 1734.050781 1978.761719 1734.820312 1977.878906 1735.578125 1977 C 1736.351562 1976.121094 1737.101562 1975.230469 1737.851562 1974.328125 C 1738.589844 1973.429688 1739.320312 1972.519531 1740.039062 1971.601562 C 1740.761719 1970.679688 1741.46875 1969.75 1742.171875 1968.820312 C 1742.871094 1967.878906 1743.558594 1966.941406 1744.238281 1965.980469 C 1745.261719 1964.550781 1746.25 1963.101562 1747.210938 1961.640625 C 1747.539062 1961.148438 1747.851562 1960.660156 1748.171875 1960.160156 C 1748.800781 1959.179688 1749.421875 1958.179688 1750.03125 1957.179688 C 1750.640625 1956.179688 1751.238281 1955.171875 1751.820312 1954.148438 C 1752.410156 1953.128906 1752.980469 1952.101562 1753.539062 1951.070312 C 1754.101562 1950.039062 1754.648438 1949 1755.191406 1947.949219 C 1755.988281 1946.378906 1756.769531 1944.789062 1757.519531 1943.179688 C 1757.769531 1942.648438 1758.019531 1942.109375 1758.261719 1941.570312 C 1758.75 1940.488281 1759.21875 1939.410156 1759.679688 1938.320312 C 1760.371094 1936.679688 1761.039062 1935.03125 1761.671875 1933.371094 C 1762.300781 1931.699219 1762.910156 1930.019531 1763.480469 1928.328125 C 1763.859375 1927.199219 1764.230469 1926.058594 1764.589844 1924.921875 C 1764.941406 1923.78125 1765.28125 1922.628906 1765.609375 1921.46875 C 1766.589844 1918.011719 1767.449219 1914.5 1768.179688 1910.941406 C 1768.421875 1909.75 1768.648438 1908.558594 1768.859375 1907.359375 C 1770.359375 1898.980469 1771.140625 1890.351562 1771.140625 1881.539062 L 1771.140625 455.988281 C 1771.140625 440.480469 1769.46875 425.351562 1766.300781 410.78125 C 1765.929688 409.070312 1765.53125 407.359375 1765.121094 405.671875 "/>
<path fill-rule="nonzero" fill="rgb(46.530151%, 33.383179%, 64.317322%)" fill-opacity="1" d="M 1601.011719 1502.289062 L 1601 1501.941406 L 1600.949219 1500.679688 L 1600.941406 1500.550781 L 1600.859375 1499.410156 L 1600.828125 1499.011719 L 1600.730469 1497.929688 L 1600.679688 1497.46875 L 1600.578125 1496.621094 L 1600.511719 1496.070312 L 1600.410156 1495.378906 L 1600.171875 1493.949219 L 1599.96875 1492.898438 L 1599.890625 1492.511719 L 1599.710938 1491.648438 L 1599.558594 1491.019531 L 1599.480469 1490.691406 C 1593.359375 1465.460938 1569.671875 1446.648438 1541.371094 1446.648438 L 1453.96875 1446.648438 C 1421.03125 1446.648438 1394.320312 1472.140625 1394.320312 1503.578125 L 1394.320312 1825.328125 C 1394.320312 1849.128906 1409.628906 1869.519531 1431.351562 1878.019531 L 1431.441406 1878.058594 L 1432.601562 1878.5 L 1432.839844 1878.589844 L 1433.890625 1878.960938 L 1434.171875 1879.050781 L 1435.460938 1879.46875 L 1435.671875 1879.539062 L 1436.53125 1879.789062 L 1436.621094 1879.820312 C 1437.148438 1879.96875 1437.679688 1880.121094 1438.21875 1880.261719 L 1438.660156 1880.371094 L 1439.371094 1880.550781 L 1440.050781 1880.710938 L 1440.878906 1880.890625 L 1441.691406 1881.058594 L 1442.230469 1881.160156 L 1443.101562 1881.320312 L 1443.5 1881.390625 L 1444.699219 1881.578125 L 1445.171875 1881.648438 L 1446.121094 1881.78125 L 1446.480469 1881.820312 L 1447.761719 1881.960938 L 1448.109375 1882 L 1449.148438 1882.078125 L 1449.53125 1882.109375 L 1450.851562 1882.191406 L 1451.070312 1882.199219 L 1452.238281 1882.238281 L 1452.589844 1882.25 L 1453.96875 1882.269531 L 1541.378906 1882.269531 C 1574.320312 1882.269531 1601.019531 1856.78125 1601.019531 1825.328125 L 1601.019531 1503.578125 L 1601.011719 1502.289062 "/>
<path fill-rule="nonzero" fill="rgb(92.36145%, 56.620789%, 75.341797%)" fill-opacity="1" d="M 789.175781 1256.449219 L 789.125 1255.140625 L 789.121094 1255.070312 L 789.039062 1253.71875 L 789.011719 1253.371094 L 788.90625 1252.21875 L 788.886719 1252.011719 L 788.742188 1250.75 L 788.6875 1250.289062 L 788.5625 1249.398438 L 788.496094 1248.960938 L 788.308594 1247.828125 L 788.199219 1247.21875 L 788.085938 1246.628906 C 787.921875 1245.78125 787.734375 1244.941406 787.535156 1244.109375 L 787.496094 1243.949219 C 787.378906 1243.46875 787.253906 1243 787.128906 1242.519531 L 787.058594 1242.269531 L 786.703125 1241.039062 L 786.65625 1240.878906 C 779.246094 1216.359375 756.488281 1198.5 729.550781 1198.5 L 642.152344 1198.5 C 609.207031 1198.5 582.5 1225.210938 582.5 1258.148438 L 582.5 1326.328125 C 582.5 1354.648438 602.242188 1378.351562 628.710938 1384.449219 L 629.03125 1384.519531 L 629.695312 1384.671875 L 630.613281 1384.851562 L 630.980469 1384.929688 L 632.097656 1385.128906 L 632.457031 1385.191406 L 633.566406 1385.359375 L 634.300781 1385.460938 L 634.871094 1385.53125 L 635.730469 1385.628906 L 636.144531 1385.679688 L 637.367188 1385.78125 L 637.789062 1385.820312 L 638.953125 1385.890625 L 639.109375 1385.898438 L 640.441406 1385.949219 L 640.796875 1385.960938 L 642.148438 1385.980469 L 729.550781 1385.980469 C 738.304688 1385.980469 746.613281 1384.089844 754.101562 1380.710938 C 754.980469 1380.308594 755.851562 1379.890625 756.707031 1379.449219 C 757.566406 1379.011719 758.410156 1378.550781 759.242188 1378.070312 C 760.074219 1377.589844 760.894531 1377.101562 761.703125 1376.578125 C 762.511719 1376.058594 763.304688 1375.53125 764.082031 1374.96875 C 766.8125 1373.03125 769.371094 1370.871094 771.730469 1368.5 C 776.789062 1363.441406 780.945312 1357.480469 783.933594 1350.871094 C 784.332031 1349.988281 784.707031 1349.101562 785.0625 1348.199219 C 787.734375 1341.429688 789.203125 1334.050781 789.203125 1326.328125 L 789.203125 1258.148438 L 789.183594 1256.769531 L 789.175781 1256.449219 "/>
<path fill-rule="nonzero" fill="rgb(92.36145%, 56.620789%, 75.341797%)" fill-opacity="1" d="M 1059.78125 1256.421875 L 1059.738281 1255.199219 L 1059.730469 1255.050781 L 1059.648438 1253.738281 L 1059.621094 1253.351562 L 1059.519531 1252.269531 L 1059.488281 1251.988281 L 1059.351562 1250.769531 L 1059.289062 1250.261719 L 1059.179688 1249.449219 L 1059.078125 1248.808594 L 1058.921875 1247.851562 L 1058.800781 1247.191406 L 1058.699219 1246.671875 C 1058.53125 1245.800781 1058.339844 1244.941406 1058.140625 1244.078125 L 1058.109375 1243.988281 C 1058 1243.511719 1057.871094 1243.03125 1057.738281 1242.558594 L 1057.671875 1242.308594 L 1057.320312 1241.070312 L 1057.269531 1240.921875 C 1049.878906 1216.378906 1027.109375 1198.5 1000.160156 1198.5 L 912.757812 1198.5 C 879.816406 1198.5 853.109375 1225.210938 853.109375 1258.148438 L 853.109375 1326.328125 C 853.109375 1354.648438 872.847656 1378.351562 899.320312 1384.449219 L 899.640625 1384.519531 L 900.300781 1384.671875 L 901.222656 1384.859375 L 901.585938 1384.921875 L 902.703125 1385.128906 L 903.0625 1385.191406 L 904.179688 1385.359375 L 904.90625 1385.460938 L 905.480469 1385.53125 L 906.332031 1385.628906 L 906.761719 1385.679688 L 907.972656 1385.78125 L 908.398438 1385.820312 L 909.558594 1385.890625 L 909.71875 1385.898438 L 911.046875 1385.949219 L 911.40625 1385.960938 L 912.757812 1385.980469 L 1000.160156 1385.980469 C 1005.308594 1385.980469 1010.300781 1385.320312 1015.070312 1384.101562 C 1018.398438 1383.238281 1021.628906 1382.101562 1024.710938 1380.710938 C 1026.46875 1379.910156 1028.191406 1379.03125 1029.851562 1378.070312 L 1031.089844 1377.339844 C 1035.601562 1374.601562 1039.71875 1371.28125 1043.339844 1367.480469 C 1044.328125 1366.441406 1045.28125 1365.371094 1046.191406 1364.269531 C 1046.800781 1363.53125 1047.390625 1362.78125 1047.960938 1362.019531 C 1049.101562 1360.480469 1050.179688 1358.898438 1051.171875 1357.261719 C 1051.671875 1356.441406 1052.148438 1355.601562 1052.609375 1354.761719 C 1053.300781 1353.488281 1053.941406 1352.199219 1054.539062 1350.871094 C 1055.140625 1349.550781 1055.691406 1348.210938 1056.191406 1346.839844 C 1058.53125 1340.441406 1059.808594 1333.53125 1059.808594 1326.328125 L 1059.808594 1258.148438 L 1059.789062 1256.789062 L 1059.78125 1256.421875 "/>
<path fill-rule="nonzero" fill="rgb(92.36145%, 56.620789%, 75.341797%)" fill-opacity="1" d="M 1330.398438 1256.820312 L 1330.390625 1256.398438 L 1330.351562 1255.269531 L 1330.328125 1255.011719 L 1330.261719 1253.769531 L 1330.21875 1253.320312 L 1330.128906 1252.328125 L 1330.101562 1251.949219 L 1329.960938 1250.789062 L 1329.890625 1250.238281 L 1329.789062 1249.5 L 1329.660156 1248.648438 L 1329.53125 1247.878906 L 1329.398438 1247.160156 L 1329.320312 1246.71875 C 1329.140625 1245.820312 1328.949219 1244.929688 1328.730469 1244.050781 L 1328.730469 1244.03125 C 1328.609375 1243.550781 1328.488281 1243.070312 1328.359375 1242.601562 L 1328.289062 1242.351562 L 1327.941406 1241.109375 L 1327.890625 1240.941406 C 1320.5 1216.390625 1297.730469 1198.5 1270.769531 1198.5 L 1183.371094 1198.5 C 1150.421875 1198.5 1123.71875 1225.210938 1123.71875 1258.148438 L 1123.71875 1326.328125 C 1123.71875 1349.488281 1136.921875 1369.570312 1156.210938 1379.449219 C 1160.960938 1381.890625 1166.101562 1383.699219 1171.488281 1384.789062 L 1171.898438 1384.871094 L 1172.378906 1384.960938 L 1173.328125 1385.128906 L 1173.648438 1385.179688 L 1174.828125 1385.359375 L 1175.511719 1385.460938 L 1176.101562 1385.53125 L 1176.929688 1385.628906 L 1177.390625 1385.679688 L 1178.578125 1385.78125 L 1179.011719 1385.820312 L 1180.160156 1385.890625 L 1180.328125 1385.898438 L 1181.648438 1385.949219 L 1182.011719 1385.960938 L 1183.371094 1385.980469 L 1270.769531 1385.980469 C 1272.828125 1385.980469 1274.859375 1385.871094 1276.871094 1385.671875 C 1277.371094 1385.621094 1277.871094 1385.558594 1278.359375 1385.5 C 1280.851562 1385.179688 1283.289062 1384.710938 1285.671875 1384.101562 C 1288.53125 1383.359375 1291.308594 1382.421875 1293.988281 1381.289062 C 1294.878906 1380.910156 1295.761719 1380.511719 1296.628906 1380.089844 L 1297.921875 1379.449219 C 1299.640625 1378.570312 1301.300781 1377.609375 1302.921875 1376.578125 C 1303.71875 1376.058594 1304.519531 1375.53125 1305.300781 1374.96875 C 1306.078125 1374.421875 1306.839844 1373.839844 1307.589844 1373.25 C 1308.351562 1372.660156 1309.078125 1372.050781 1309.800781 1371.429688 C 1310.519531 1370.800781 1311.230469 1370.160156 1311.921875 1369.5 L 1312.949219 1368.5 C 1318.679688 1362.769531 1323.25 1355.871094 1326.28125 1348.199219 C 1328.949219 1341.429688 1330.421875 1334.050781 1330.421875 1326.328125 L 1330.421875 1258.070312 L 1330.398438 1256.820312 "/>
<path fill-rule="nonzero" fill="rgb(92.36145%, 56.620789%, 75.341797%)" fill-opacity="1" d="M 1601.011719 1256.789062 L 1601 1256.421875 L 1600.949219 1255.199219 L 1600.941406 1255.050781 L 1600.859375 1253.738281 L 1600.828125 1253.351562 L 1600.738281 1252.269531 L 1600.710938 1251.988281 L 1600.570312 1250.769531 L 1600.5 1250.261719 L 1600.390625 1249.449219 L 1600.289062 1248.808594 L 1600.140625 1247.851562 L 1600.019531 1247.191406 L 1599.921875 1246.671875 C 1599.75 1245.800781 1599.558594 1244.941406 1599.351562 1244.078125 L 1599.328125 1243.988281 C 1599.210938 1243.511719 1599.089844 1243.03125 1598.960938 1242.558594 L 1598.890625 1242.308594 L 1598.539062 1241.070312 L 1598.488281 1240.921875 C 1591.089844 1216.378906 1568.320312 1198.5 1541.371094 1198.5 L 1453.96875 1198.5 C 1421.03125 1198.5 1394.320312 1225.210938 1394.320312 1258.148438 L 1394.320312 1326.328125 C 1394.320312 1354.660156 1414.078125 1378.371094 1440.570312 1384.449219 L 1440.851562 1384.519531 L 1441.558594 1384.679688 L 1442.421875 1384.851562 L 1442.839844 1384.929688 L 1443.929688 1385.128906 L 1444.261719 1385.179688 L 1445.421875 1385.359375 L 1446.121094 1385.460938 L 1446.699219 1385.53125 L 1447.539062 1385.628906 L 1447.980469 1385.679688 L 1449.191406 1385.78125 L 1449.609375 1385.820312 L 1450.769531 1385.890625 L 1450.941406 1385.898438 L 1452.261719 1385.949219 L 1452.621094 1385.960938 L 1453.96875 1385.980469 L 1541.378906 1385.980469 C 1574.320312 1385.980469 1601.019531 1359.269531 1601.019531 1326.328125 L 1601.019531 1258.148438 L 1601.011719 1256.789062 "/>
<path fill-rule="nonzero" fill="rgb(92.36145%, 56.620789%, 75.341797%)" fill-opacity="1" d="M 789.175781 1504.589844 L 789.125 1503.28125 L 789.121094 1503.21875 L 789.039062 1501.871094 L 789.011719 1501.519531 L 788.90625 1500.359375 L 788.886719 1500.148438 L 788.742188 1498.890625 L 788.6875 1498.441406 L 788.5625 1497.550781 L 788.496094 1497.109375 L 788.308594 1495.980469 L 788.199219 1495.371094 L 788.085938 1494.78125 C 787.921875 1493.929688 787.734375 1493.089844 787.535156 1492.261719 L 787.496094 1492.089844 C 787.378906 1491.621094 787.253906 1491.140625 787.128906 1490.671875 L 787.058594 1490.421875 L 786.703125 1489.179688 L 786.65625 1489.03125 C 779.246094 1464.511719 756.488281 1446.648438 729.550781 1446.648438 L 642.152344 1446.648438 C 609.207031 1446.648438 582.5 1473.351562 582.5 1506.300781 L 582.5 1574.46875 C 582.5 1602.789062 602.242188 1626.5 628.714844 1632.589844 L 629.03125 1632.671875 L 629.722656 1632.820312 L 630.613281 1633 L 630.980469 1633.070312 L 632.097656 1633.269531 L 632.457031 1633.328125 L 633.566406 1633.511719 L 634.300781 1633.609375 L 634.871094 1633.679688 L 635.730469 1633.78125 L 636.144531 1633.820312 L 637.367188 1633.929688 L 637.789062 1633.960938 L 638.953125 1634.039062 L 639.109375 1634.050781 L 640.441406 1634.101562 L 640.796875 1634.109375 L 642.148438 1634.121094 L 729.550781 1634.121094 C 738.304688 1634.121094 746.613281 1632.238281 754.101562 1628.851562 C 754.980469 1628.460938 755.851562 1628.039062 756.707031 1627.601562 C 757.566406 1627.160156 758.410156 1626.699219 759.242188 1626.21875 C 760.074219 1625.738281 760.894531 1625.238281 761.703125 1624.71875 C 762.511719 1624.210938 763.304688 1623.671875 764.082031 1623.121094 C 766.8125 1621.179688 769.371094 1619.011719 771.730469 1616.648438 C 776.789062 1611.589844 780.945312 1605.628906 783.933594 1599.019531 C 784.332031 1598.140625 784.707031 1597.25 785.0625 1596.351562 C 787.734375 1589.570312 789.203125 1582.191406 789.203125 1574.46875 L 789.203125 1506.300781 L 789.183594 1504.921875 L 789.175781 1504.589844 "/>
<path fill-rule="nonzero" fill="rgb(92.36145%, 56.620789%, 75.341797%)" fill-opacity="1" d="M 1059.78125 1504.570312 L 1059.738281 1503.351562 L 1059.730469 1503.199219 L 1059.648438 1501.890625 L 1059.621094 1501.488281 L 1059.519531 1500.421875 L 1059.488281 1500.140625 L 1059.351562 1498.921875 L 1059.289062 1498.410156 L 1059.179688 1497.589844 L 1059.078125 1496.949219 L 1058.921875 1496 L 1058.800781 1495.339844 L 1058.699219 1494.820312 C 1058.53125 1493.949219 1058.339844 1493.078125 1058.140625 1492.230469 L 1058.109375 1492.128906 C 1058 1491.660156 1057.871094 1491.179688 1057.738281 1490.710938 L 1057.671875 1490.449219 L 1057.320312 1489.21875 L 1057.269531 1489.058594 C 1049.878906 1464.519531 1027.109375 1446.648438 1000.160156 1446.648438 L 912.757812 1446.648438 C 879.816406 1446.648438 853.109375 1473.351562 853.109375 1506.300781 L 853.109375 1574.46875 C 853.109375 1602.789062 872.847656 1626.5 899.316406 1632.589844 L 899.675781 1632.679688 L 900.269531 1632.808594 L 901.207031 1633 L 901.613281 1633.078125 L 902.710938 1633.28125 L 903.054688 1633.328125 L 904.191406 1633.511719 L 904.90625 1633.609375 L 905.480469 1633.679688 L 906.332031 1633.78125 L 906.761719 1633.820312 L 907.972656 1633.929688 L 908.398438 1633.960938 L 909.558594 1634.039062 L 909.71875 1634.050781 L 911.046875 1634.101562 L 911.40625 1634.109375 L 912.757812 1634.121094 L 1000.160156 1634.121094 C 1005.308594 1634.121094 1010.300781 1633.46875 1015.070312 1632.238281 C 1018.398438 1631.390625 1021.628906 1630.25 1024.710938 1628.851562 C 1026.46875 1628.058594 1028.191406 1627.179688 1029.851562 1626.21875 L 1031.089844 1625.488281 C 1035.601562 1622.75 1039.71875 1619.429688 1043.339844 1615.628906 C 1044.328125 1614.589844 1045.28125 1613.519531 1046.191406 1612.421875 C 1046.800781 1611.679688 1047.390625 1610.929688 1047.960938 1610.160156 C 1049.101562 1608.628906 1050.179688 1607.039062 1051.171875 1605.398438 C 1051.671875 1604.578125 1052.148438 1603.75 1052.609375 1602.910156 C 1053.300781 1601.640625 1053.941406 1600.339844 1054.539062 1599.019531 C 1055.140625 1597.699219 1055.691406 1596.351562 1056.191406 1594.980469 C 1058.53125 1588.589844 1059.808594 1581.679688 1059.808594 1574.46875 L 1059.808594 1506.300781 L 1059.789062 1504.941406 L 1059.78125 1504.570312 "/>
<path fill-rule="nonzero" fill="rgb(92.36145%, 56.620789%, 75.341797%)" fill-opacity="1" d="M 1330.398438 1504.960938 L 1330.390625 1504.539062 L 1330.351562 1503.410156 L 1330.328125 1503.160156 L 1330.261719 1501.910156 L 1330.21875 1501.46875 L 1330.128906 1500.480469 L 1330.101562 1500.101562 L 1329.960938 1498.941406 L 1329.890625 1498.378906 L 1329.789062 1497.640625 L 1329.660156 1496.789062 L 1329.53125 1496.019531 L 1329.398438 1495.308594 L 1329.320312 1494.859375 C 1329.140625 1493.96875 1328.949219 1493.078125 1328.730469 1492.191406 L 1328.730469 1492.171875 C 1328.609375 1491.691406 1328.488281 1491.21875 1328.359375 1490.738281 L 1328.289062 1490.5 L 1327.941406 1489.261719 L 1327.890625 1489.089844 C 1320.5 1464.539062 1297.730469 1446.648438 1270.769531 1446.648438 L 1183.371094 1446.648438 L 1182.21875 1446.660156 C 1149.808594 1447.269531 1123.71875 1473.738281 1123.71875 1506.300781 L 1123.71875 1574.46875 C 1123.71875 1602.789062 1143.449219 1626.488281 1169.910156 1632.589844 L 1170.300781 1632.679688 L 1170.890625 1632.808594 L 1171.839844 1633 L 1172.21875 1633.078125 L 1173.328125 1633.28125 L 1173.648438 1633.328125 L 1174.828125 1633.511719 L 1175.511719 1633.609375 L 1176.101562 1633.679688 L 1176.929688 1633.78125 L 1177.390625 1633.820312 L 1178.578125 1633.929688 L 1179.011719 1633.960938 L 1180.160156 1634.039062 L 1180.328125 1634.050781 L 1181.648438 1634.101562 L 1182.011719 1634.109375 L 1183.371094 1634.121094 L 1270.769531 1634.121094 C 1272.828125 1634.121094 1274.859375 1634.019531 1276.871094 1633.808594 C 1277.371094 1633.761719 1277.871094 1633.710938 1278.359375 1633.640625 C 1280.851562 1633.328125 1283.289062 1632.859375 1285.671875 1632.238281 C 1288.53125 1631.511719 1291.308594 1630.570312 1293.988281 1629.429688 C 1294.878906 1629.058594 1295.761719 1628.660156 1296.628906 1628.238281 L 1297.921875 1627.601562 C 1299.640625 1626.71875 1301.300781 1625.761719 1302.921875 1624.71875 C 1303.71875 1624.210938 1304.519531 1623.671875 1305.300781 1623.121094 C 1306.078125 1622.558594 1306.839844 1621.988281 1307.589844 1621.398438 C 1308.351562 1620.808594 1309.078125 1620.199219 1309.800781 1619.578125 C 1310.519531 1618.949219 1311.230469 1618.308594 1311.921875 1617.648438 L 1312.949219 1616.648438 C 1318.679688 1610.921875 1323.25 1604.019531 1326.28125 1596.351562 C 1328.949219 1589.570312 1330.421875 1582.191406 1330.421875 1574.46875 L 1330.421875 1506.21875 L 1330.398438 1504.960938 "/>
<path fill-rule="nonzero" fill="rgb(92.36145%, 56.620789%, 75.341797%)" fill-opacity="1" d="M 789.175781 1752.738281 L 789.125 1751.429688 L 789.121094 1751.359375 L 789.039062 1750.011719 L 789.011719 1749.671875 L 788.90625 1748.511719 L 788.886719 1748.300781 L 788.742188 1747.039062 L 788.6875 1746.589844 L 788.5625 1745.691406 L 788.496094 1745.25 L 788.308594 1744.128906 L 788.199219 1743.511719 L 788.085938 1742.921875 C 787.921875 1742.078125 787.734375 1741.238281 787.535156 1740.410156 L 787.496094 1740.238281 C 787.378906 1739.761719 787.253906 1739.289062 787.128906 1738.820312 L 787.058594 1738.570312 L 786.703125 1737.328125 L 786.65625 1737.171875 C 779.246094 1712.648438 756.488281 1694.789062 729.550781 1694.789062 L 642.152344 1694.789062 C 620.09375 1694.789062 600.832031 1706.769531 590.511719 1724.570312 C 585.417969 1733.359375 582.5 1743.558594 582.5 1754.449219 L 582.5 1822.621094 C 582.5 1850.941406 602.242188 1874.648438 628.714844 1880.738281 L 629.03125 1880.808594 L 629.722656 1880.96875 L 630.613281 1881.148438 L 630.980469 1881.21875 L 632.097656 1881.421875 L 632.457031 1881.480469 L 633.566406 1881.648438 L 634.300781 1881.75 L 634.871094 1881.828125 L 635.730469 1881.921875 L 636.144531 1881.96875 L 637.367188 1882.078125 L 637.789062 1882.109375 L 638.953125 1882.179688 L 639.109375 1882.191406 L 640.441406 1882.238281 L 640.796875 1882.25 L 642.148438 1882.269531 L 729.550781 1882.269531 C 738.304688 1882.269531 746.613281 1880.390625 754.101562 1877 C 754.980469 1876.601562 755.851562 1876.179688 756.707031 1875.738281 C 757.566406 1875.300781 758.410156 1874.839844 759.242188 1874.371094 C 760.074219 1873.890625 760.894531 1873.390625 761.703125 1872.871094 C 762.511719 1872.351562 763.304688 1871.820312 764.082031 1871.261719 C 766.8125 1869.320312 769.371094 1867.160156 771.730469 1864.800781 C 776.789062 1859.738281 780.945312 1853.769531 783.933594 1847.171875 C 784.332031 1846.289062 784.707031 1845.390625 785.0625 1844.488281 C 787.734375 1837.71875 789.203125 1830.339844 789.203125 1822.621094 L 789.203125 1754.449219 L 789.183594 1753.058594 L 789.175781 1752.738281 "/>
<path fill-rule="nonzero" fill="rgb(92.36145%, 56.620789%, 75.341797%)" fill-opacity="1" d="M 1059.78125 1752.710938 L 1059.738281 1751.488281 L 1059.730469 1751.351562 L 1059.648438 1750.039062 L 1059.621094 1749.640625 L 1059.519531 1748.570312 L 1059.488281 1748.28125 L 1059.351562 1747.058594 L 1059.289062 1746.558594 L 1059.179688 1745.738281 L 1059.078125 1745.101562 L 1058.921875 1744.148438 L 1058.800781 1743.480469 L 1058.699219 1742.96875 C 1058.53125 1742.101562 1058.339844 1741.230469 1058.140625 1740.371094 L 1058.109375 1740.28125 C 1058 1739.800781 1057.871094 1739.328125 1057.738281 1738.859375 L 1057.671875 1738.601562 L 1057.320312 1737.371094 L 1057.269531 1737.210938 C 1049.878906 1712.671875 1027.109375 1694.789062 1000.160156 1694.789062 L 912.757812 1694.789062 C 879.816406 1694.789062 853.109375 1721.5 853.109375 1754.449219 L 853.109375 1822.621094 C 853.109375 1823.828125 853.148438 1825.03125 853.21875 1826.21875 C 854.8125 1852.960938 874.015625 1874.949219 899.394531 1880.761719 L 899.671875 1880.820312 L 900.574219 1881.019531 L 901.242188 1881.148438 L 901.648438 1881.230469 L 902.710938 1881.421875 L 903.054688 1881.480469 L 904.191406 1881.648438 L 904.90625 1881.75 L 905.480469 1881.828125 L 906.332031 1881.921875 L 906.761719 1881.96875 L 907.972656 1882.078125 L 908.398438 1882.109375 L 909.558594 1882.179688 L 909.71875 1882.191406 L 911.046875 1882.238281 L 911.40625 1882.25 L 912.757812 1882.269531 L 1000.160156 1882.269531 C 1005.308594 1882.269531 1010.300781 1881.621094 1015.070312 1880.390625 C 1018.398438 1879.53125 1021.628906 1878.390625 1024.710938 1877 C 1026.46875 1876.199219 1028.191406 1875.320312 1029.851562 1874.371094 L 1031.089844 1873.628906 C 1035.601562 1870.890625 1039.71875 1867.570312 1043.339844 1863.769531 C 1044.328125 1862.738281 1045.28125 1861.671875 1046.191406 1860.558594 C 1046.800781 1859.828125 1047.390625 1859.070312 1047.960938 1858.308594 C 1049.101562 1856.78125 1050.179688 1855.191406 1051.171875 1853.550781 C 1051.671875 1852.730469 1052.148438 1851.898438 1052.609375 1851.050781 C 1053.300781 1849.78125 1053.941406 1848.488281 1054.539062 1847.171875 C 1055.140625 1845.851562 1055.691406 1844.5 1056.191406 1843.128906 C 1058.53125 1836.730469 1059.808594 1829.828125 1059.808594 1822.621094 L 1059.808594 1754.449219 L 1059.789062 1753.089844 L 1059.78125 1752.710938 "/>
<path fill-rule="nonzero" fill="rgb(92.36145%, 56.620789%, 75.341797%)" fill-opacity="1" d="M 1330.398438 1753.109375 L 1330.390625 1752.691406 L 1330.351562 1751.558594 L 1330.328125 1751.300781 L 1330.261719 1750.058594 L 1330.21875 1749.609375 L 1330.128906 1748.621094 L 1330.101562 1748.238281 L 1329.960938 1747.078125 L 1329.890625 1746.53125 L 1329.789062 1745.789062 L 1329.660156 1744.941406 L 1329.53125 1744.171875 L 1329.398438 1743.449219 L 1329.320312 1743.011719 C 1329.140625 1742.109375 1328.949219 1741.21875 1328.730469 1740.339844 L 1328.730469 1740.320312 C 1328.609375 1739.839844 1328.488281 1739.359375 1328.359375 1738.890625 L 1328.289062 1738.640625 L 1327.941406 1737.410156 L 1327.890625 1737.238281 C 1320.5 1712.679688 1297.730469 1694.789062 1270.769531 1694.789062 L 1183.371094 1694.789062 C 1182.199219 1694.789062 1181.039062 1694.828125 1179.890625 1694.898438 C 1148.558594 1696.699219 1123.71875 1722.671875 1123.71875 1754.449219 L 1123.71875 1822.621094 C 1123.71875 1850.941406 1143.449219 1874.640625 1169.910156 1880.738281 L 1170.300781 1880.828125 L 1170.890625 1880.960938 L 1171.839844 1881.148438 L 1172.21875 1881.21875 L 1173.328125 1881.421875 L 1173.648438 1881.480469 L 1174.828125 1881.660156 L 1175.511719 1881.75 L 1176.101562 1881.828125 L 1176.929688 1881.921875 L 1177.390625 1881.96875 L 1178.578125 1882.078125 L 1179.011719 1882.109375 L 1180.160156 1882.179688 L 1180.328125 1882.191406 L 1181.648438 1882.238281 L 1182.011719 1882.25 L 1183.371094 1882.269531 L 1270.769531 1882.269531 C 1272.828125 1882.269531 1274.859375 1882.171875 1276.871094 1881.960938 C 1277.371094 1881.910156 1277.871094 1881.851562 1278.359375 1881.789062 C 1280.851562 1881.46875 1283.289062 1881 1285.671875 1880.390625 C 1288.53125 1879.660156 1291.308594 1878.710938 1293.988281 1877.578125 C 1294.878906 1877.199219 1295.761719 1876.808594 1296.628906 1876.390625 L 1297.921875 1875.738281 C 1299.640625 1874.871094 1301.300781 1873.910156 1302.921875 1872.871094 C 1303.71875 1872.351562 1304.519531 1871.820312 1305.300781 1871.261719 C 1306.078125 1870.710938 1306.839844 1870.140625 1307.589844 1869.550781 C 1308.351562 1868.960938 1309.078125 1868.351562 1309.800781 1867.71875 C 1310.519531 1867.101562 1311.230469 1866.460938 1311.921875 1865.800781 L 1312.949219 1864.800781 C 1318.679688 1859.058594 1323.25 1852.171875 1326.28125 1844.488281 C 1328.949219 1837.71875 1330.421875 1830.339844 1330.421875 1822.621094 L 1330.421875 1754.371094 L 1330.398438 1753.109375 "/>
<path fill-rule="nonzero" fill="rgb(46.530151%, 33.383179%, 64.317322%)" fill-opacity="1" d="M 1059.789062 1043.988281 L 1059.769531 1043.199219 L 1059.761719 1042.878906 L 1059.730469 1041.960938 L 1059.71875 1041.808594 L 1059.660156 1040.691406 L 1059.648438 1040.578125 L 1059.570312 1039.570312 L 1059.558594 1039.398438 L 1059.46875 1038.371094 L 1059.460938 1038.300781 C 1059.410156 1037.820312 1059.359375 1037.328125 1059.300781 1036.851562 L 1059.25 1036.398438 L 1059.070312 1035.089844 L 1058.988281 1034.550781 L 1058.851562 1033.710938 L 1058.679688 1032.660156 L 1058.550781 1031.988281 L 1058.378906 1031.101562 L 1058.328125 1030.878906 C 1051.621094 998.261719 1022.75 973.730469 988.144531 973.730469 L 924.773438 973.730469 C 885.195312 973.730469 853.109375 1005.820312 853.109375 1045.398438 C 853.109375 1080 877.628906 1108.859375 910.238281 1115.578125 L 910.476562 1115.628906 L 911.367188 1115.808594 L 912.140625 1115.949219 L 913.0625 1116.109375 L 913.921875 1116.238281 L 914.464844 1116.328125 L 915.796875 1116.5 L 916.195312 1116.550781 C 916.6875 1116.609375 917.179688 1116.671875 917.671875 1116.71875 L 917.746094 1116.71875 L 918.773438 1116.820312 L 918.9375 1116.828125 L 919.949219 1116.898438 L 920.058594 1116.910156 L 921.175781 1116.980469 L 921.339844 1116.980469 L 922.253906 1117.019531 L 922.570312 1117.03125 L 923.367188 1117.050781 L 923.695312 1117.058594 L 988.144531 1117.058594 C 1027.71875 1117.058594 1059.808594 1084.980469 1059.808594 1045.398438 L 1059.800781 1044.320312 L 1059.789062 1043.988281 "/>
<path fill-rule="nonzero" fill="rgb(46.530151%, 33.383179%, 64.317322%)" fill-opacity="1" d="M 1330.398438 1044.050781 L 1330.378906 1043.148438 L 1330.371094 1042.921875 L 1330.328125 1041.871094 L 1330.328125 1041.828125 L 1330.261719 1040.660156 L 1330.179688 1039.53125 L 1330.171875 1039.449219 C 1330.128906 1038.949219 1330.078125 1038.449219 1330.03125 1037.949219 L 1329.988281 1037.539062 L 1329.820312 1036.148438 L 1329.761719 1035.699219 L 1329.621094 1034.710938 L 1329.53125 1034.128906 L 1329.339844 1032.988281 L 1329.191406 1032.160156 L 1329.121094 1031.769531 C 1322.75 998.710938 1293.671875 973.730469 1258.75 973.730469 L 1195.378906 973.730469 C 1155.800781 973.730469 1123.71875 1005.820312 1123.71875 1045.398438 C 1123.71875 1080.03125 1148.289062 1108.921875 1180.949219 1115.601562 L 1181.050781 1115.628906 L 1181.980469 1115.808594 L 1182.628906 1115.929688 L 1183.691406 1116.109375 L 1184.53125 1116.238281 L 1185.070312 1116.328125 L 1186.378906 1116.5 L 1186.828125 1116.558594 C 1187.308594 1116.609375 1187.800781 1116.671875 1188.28125 1116.71875 L 1188.351562 1116.71875 L 1189.390625 1116.820312 L 1189.539062 1116.828125 L 1190.558594 1116.898438 L 1190.671875 1116.910156 L 1191.789062 1116.980469 L 1191.941406 1116.980469 L 1192.859375 1117.019531 L 1193.179688 1117.03125 L 1193.96875 1117.050781 L 1194.300781 1117.058594 L 1258.75 1117.058594 C 1298.328125 1117.058594 1330.421875 1084.980469 1330.421875 1045.398438 L 1330.410156 1044.289062 L 1330.398438 1044.050781 "/>
<path fill-rule="nonzero" fill="rgb(46.530151%, 33.383179%, 64.317322%)" fill-opacity="1" d="M 1601.019531 1044.320312 L 1601.011719 1043.988281 L 1600.988281 1043.199219 L 1600.980469 1042.878906 L 1600.941406 1041.960938 L 1600.941406 1041.808594 L 1600.871094 1040.691406 L 1600.859375 1040.578125 L 1600.789062 1039.570312 L 1600.78125 1039.410156 C 1600.730469 1038.910156 1600.691406 1038.410156 1600.628906 1037.921875 L 1600.589844 1037.5 L 1600.429688 1036.128906 L 1600.359375 1035.621094 L 1600.230469 1034.730469 L 1600.109375 1033.929688 L 1599.949219 1032.96875 L 1599.789062 1032.128906 L 1599.710938 1031.710938 C 1593.320312 998.679688 1564.261719 973.730469 1529.359375 973.730469 L 1465.988281 973.730469 C 1451.671875 973.730469 1438.328125 977.941406 1427.128906 985.171875 C 1416.179688 992.25 1407.289062 1002.238281 1401.53125 1014.039062 C 1396.921875 1023.511719 1394.320312 1034.148438 1394.320312 1045.398438 C 1394.320312 1080.03125 1418.890625 1108.921875 1451.539062 1115.601562 L 1451.660156 1115.628906 L 1452.578125 1115.808594 L 1453.25 1115.929688 L 1454.289062 1116.109375 L 1455.140625 1116.238281 L 1455.679688 1116.328125 L 1456.988281 1116.5 L 1457.441406 1116.558594 C 1457.921875 1116.609375 1458.398438 1116.671875 1458.890625 1116.71875 L 1458.960938 1116.71875 L 1459.988281 1116.820312 L 1460.148438 1116.828125 L 1461.171875 1116.898438 L 1461.269531 1116.910156 L 1462.390625 1116.980469 L 1462.550781 1116.980469 L 1463.46875 1117.019531 L 1463.78125 1117.03125 L 1464.578125 1117.050781 L 1464.910156 1117.058594 L 1529.359375 1117.058594 C 1534 1117.058594 1538.53125 1116.621094 1542.929688 1115.78125 C 1544.101562 1115.558594 1545.261719 1115.300781 1546.410156 1115.019531 C 1549 1114.390625 1551.53125 1113.621094 1554 1112.71875 C 1555.921875 1112.011719 1557.800781 1111.230469 1559.640625 1110.371094 C 1560.171875 1110.128906 1560.691406 1109.871094 1561.210938 1109.621094 C 1563.28125 1108.578125 1565.300781 1107.460938 1567.261719 1106.238281 C 1568.230469 1105.628906 1569.191406 1104.988281 1570.140625 1104.339844 C 1570.609375 1104.011719 1571.078125 1103.679688 1571.539062 1103.339844 C 1573.871094 1101.648438 1576.078125 1099.820312 1578.179688 1097.871094 L 1578.800781 1097.28125 L 1580.03125 1096.070312 L 1581.238281 1094.839844 L 1582.410156 1093.589844 L 1583.550781 1092.300781 C 1584.109375 1091.648438 1584.660156 1090.988281 1585.199219 1090.320312 C 1585.921875 1089.421875 1586.621094 1088.511719 1587.300781 1087.589844 C 1587.640625 1087.121094 1587.96875 1086.648438 1588.300781 1086.179688 C 1588.789062 1085.46875 1589.269531 1084.75 1589.730469 1084.03125 C 1590.050781 1083.539062 1590.351562 1083.050781 1590.648438 1082.558594 L 1591.089844 1081.820312 C 1591.390625 1081.320312 1591.679688 1080.820312 1591.960938 1080.320312 L 1592.371094 1079.558594 C 1592.648438 1079.050781 1592.921875 1078.539062 1593.179688 1078.03125 C 1593.449219 1077.511719 1593.710938 1076.988281 1593.960938 1076.46875 C 1594.210938 1075.949219 1594.449219 1075.421875 1594.691406 1074.890625 C 1595.171875 1073.828125 1595.628906 1072.761719 1596.050781 1071.679688 C 1599.261719 1063.539062 1601.019531 1054.679688 1601.019531 1045.398438 L 1601.019531 1044.320312 "/>
<path fill-rule="nonzero" fill="rgb(46.530151%, 33.383179%, 64.317322%)" fill-opacity="1" d="M 789.195312 1044.351562 L 789.183594 1043.941406 L 789.167969 1043.238281 L 789.15625 1042.851562 L 789.125 1042.058594 L 789.113281 1041.78125 L 789.050781 1040.710938 L 789.035156 1040.5 L 788.96875 1039.601562 L 788.949219 1039.371094 L 788.859375 1038.371094 L 788.855469 1038.300781 C 788.804688 1037.820312 788.75 1037.328125 788.695312 1036.851562 L 788.640625 1036.398438 L 788.464844 1035.089844 L 788.382812 1034.550781 L 788.246094 1033.710938 L 788.066406 1032.648438 L 787.945312 1032 L 787.761719 1031.070312 L 787.742188 1030.96875 C 781.0625 998.308594 752.171875 973.730469 717.535156 973.730469 L 654.164062 973.730469 C 614.585938 973.730469 582.5 1005.820312 582.5 1045.398438 C 582.5 1080 607.019531 1108.859375 639.628906 1115.578125 L 639.871094 1115.628906 L 640.761719 1115.808594 L 641.566406 1115.960938 L 642.453125 1116.109375 L 643.3125 1116.238281 L 643.855469 1116.328125 L 645.1875 1116.5 L 645.589844 1116.550781 C 646.078125 1116.609375 646.570312 1116.671875 647.0625 1116.71875 L 647.140625 1116.71875 L 648.164062 1116.808594 L 648.335938 1116.828125 L 649.335938 1116.898438 L 649.453125 1116.910156 L 650.570312 1116.980469 L 650.734375 1116.980469 L 651.648438 1117.019531 L 651.960938 1117.03125 L 652.757812 1117.050781 L 653.089844 1117.058594 L 717.539062 1117.058594 C 757.117188 1117.058594 789.203125 1084.980469 789.203125 1045.398438 L 789.199219 1045.21875 L 789.195312 1044.351562 "/>




<path fill-rule="nonzero" fill="rgb(67.416382%, 52.851868%, 79.341125%)" fill-opacity="1" d="M 598.160156 425.929688 C 597.402344 423.640625 596.574219 421.390625 595.667969 419.191406 C 586.457031 396.761719 562.433594 375.289062 530.8125 374.601562 C 522.304688 374.410156 513.355469 375.628906 504.179688 378.511719 C 476.332031 387.230469 455.175781 407.621094 446.898438 430.03125 C 436.550781 458.070312 440.003906 493.449219 460.511719 519.609375 C 470.285156 532.078125 484.980469 542.621094 502.476562 547.46875 C 516.316406 551.308594 530.511719 550.890625 543.316406 547.199219 L 543.316406 513.261719 C 543.316406 474.808594 565.707031 441.589844 598.160156 425.929688 "/>
<path fill-rule="nonzero" fill="rgb(67.416382%, 52.851868%, 79.341125%)" fill-opacity="1" d="M 594.851562 393.199219 C 607.914062 396.828125 621.464844 394.640625 632.054688 388.609375 C 661.195312 372 666.554688 335.628906 655.761719 309.359375 C 649.742188 294.699219 634.042969 280.671875 613.375 280.210938 C 607.8125 280.089844 601.964844 280.890625 595.964844 282.769531 C 577.765625 288.46875 563.9375 301.789062 558.527344 316.449219 C 551.761719 334.769531 554.023438 357.890625 567.425781 374.988281 C 573.8125 383.140625 583.417969 390.03125 594.851562 393.199219 "/>
<path fill-rule="nonzero" fill="rgb(67.416382%, 52.851868%, 79.341125%)" fill-opacity="1" d="M 687.800781 416.351562 C 681.722656 407.589844 671.21875 400.429688 658.199219 400.148438 C 653.839844 400.050781 649.253906 400.679688 644.550781 402.148438 C 634.730469 405.230469 626.535156 411.128906 620.996094 418.261719 C 627.210938 417.011719 633.640625 416.351562 640.222656 416.351562 L 687.800781 416.351562 "/>
<path fill-rule="nonzero" fill="rgb(67.416382%, 52.851868%, 79.341125%)" fill-opacity="1" d="M 539.847656 1240.421875 C 547.347656 1237.960938 554.796875 1234.128906 561.933594 1228.78125 C 583.589844 1212.558594 595.800781 1188.199219 596.117188 1166.039062 C 596.519531 1138.328125 582.574219 1108.460938 556.566406 1091.910156 C 544.171875 1084.019531 528.066406 1079.339844 511.269531 1080.488281 C 492.082031 1081.808594 474.984375 1091.128906 463.664062 1104.210938 C 432.511719 1140.191406 442.523438 1191.378906 469.367188 1221.441406 C 484.34375 1238.21875 511.980469 1249.570312 539.847656 1240.421875 "/>
<path fill-rule="nonzero" fill="rgb(67.416382%, 52.851868%, 79.341125%)" fill-opacity="1" d="M 533.558594 1299.828125 C 533.820312 1281.71875 524.707031 1262.191406 507.707031 1251.378906 C 499.605469 1246.21875 489.078125 1243.160156 478.101562 1243.921875 C 465.558594 1244.78125 454.386719 1250.871094 446.984375 1259.421875 C 426.625 1282.929688 433.167969 1316.390625 450.714844 1336.039062 C 460.503906 1347 478.566406 1354.429688 496.777344 1348.449219 C 501.683594 1346.828125 506.550781 1344.328125 511.214844 1340.839844 C 525.371094 1330.230469 533.347656 1314.308594 533.558594 1299.828125 "/>
<path fill-rule="nonzero" fill="rgb(93.440247%, 47.52655%, 71.502686%)" fill-opacity="1" d="M 789.175781 1256.449219 L 789.125 1255.140625 L 789.121094 1255.070312 L 789.039062 1253.71875 L 789.011719 1253.371094 L 788.90625 1252.21875 L 788.886719 1252.011719 L 788.742188 1250.75 L 788.6875 1250.289062 L 788.5625 1249.398438 L 788.496094 1248.960938 L 788.308594 1247.828125 L 788.199219 1247.21875 L 788.085938 1246.628906 C 787.921875 1245.78125 787.734375 1244.941406 787.535156 1244.109375 L 787.496094 1243.949219 C 783.546875 1227.828125 773.035156 1214.300781 758.96875 1206.300781 C 764.421875 1215.300781 767.613281 1225.820312 767.613281 1237.109375 L 767.613281 1305.289062 C 767.613281 1338.230469 740.910156 1364.941406 707.964844 1364.941406 L 620.5625 1364.941406 C 609.855469 1364.941406 599.832031 1362.078125 591.144531 1357.140625 C 599.945312 1371.671875 614.726562 1382.171875 632.097656 1385.128906 L 632.457031 1385.191406 L 633.566406 1385.359375 L 634.300781 1385.460938 L 634.871094 1385.53125 L 635.730469 1385.628906 L 636.144531 1385.679688 L 637.367188 1385.78125 L 637.789062 1385.820312 L 638.953125 1385.890625 L 639.109375 1385.898438 L 640.441406 1385.949219 L 640.796875 1385.960938 L 642.148438 1385.980469 L 729.550781 1385.980469 C 738.304688 1385.980469 746.613281 1384.089844 754.101562 1380.710938 C 754.980469 1380.308594 755.851562 1379.890625 756.707031 1379.449219 C 757.566406 1379.011719 758.410156 1378.550781 759.242188 1378.070312 C 760.074219 1377.589844 760.894531 1377.101562 761.703125 1376.578125 C 762.511719 1376.058594 763.304688 1375.53125 764.082031 1374.96875 C 766.8125 1373.03125 769.371094 1370.871094 771.730469 1368.5 C 776.789062 1363.441406 780.945312 1357.480469 783.933594 1350.871094 C 784.332031 1349.988281 784.707031 1349.101562 785.0625 1348.199219 C 787.734375 1341.429688 789.203125 1334.050781 789.203125 1326.328125 L 789.203125 1258.148438 L 789.183594 1256.769531 L 789.175781 1256.449219 "/>
<path fill-rule="nonzero" fill="rgb(93.440247%, 47.52655%, 71.502686%)" fill-opacity="1" d="M 1029.570312 1206.300781 C 1035.03125 1215.300781 1038.21875 1225.820312 1038.21875 1237.109375 L 1038.21875 1305.289062 C 1038.21875 1338.230469 1011.519531 1364.941406 978.574219 1364.941406 L 891.171875 1364.941406 C 880.464844 1364.941406 870.441406 1362.078125 861.753906 1357.140625 C 870.550781 1371.671875 885.335938 1382.171875 902.703125 1385.128906 L 903.0625 1385.191406 L 904.179688 1385.359375 L 904.90625 1385.460938 L 905.480469 1385.53125 L 906.332031 1385.628906 L 906.761719 1385.679688 L 907.972656 1385.78125 L 908.398438 1385.820312 L 909.558594 1385.890625 L 909.71875 1385.898438 L 911.046875 1385.949219 L 911.40625 1385.960938 L 912.757812 1385.980469 L 1000.160156 1385.980469 C 1005.308594 1385.980469 1010.300781 1385.320312 1015.070312 1384.101562 C 1018.398438 1383.238281 1021.628906 1382.101562 1024.710938 1380.710938 C 1026.46875 1379.910156 1028.191406 1379.03125 1029.851562 1378.070312 L 1031.089844 1377.339844 C 1035.601562 1374.601562 1039.71875 1371.28125 1043.339844 1367.480469 C 1044.328125 1366.441406 1045.28125 1365.371094 1046.191406 1364.269531 C 1046.800781 1363.53125 1047.390625 1362.78125 1047.960938 1362.019531 C 1049.101562 1360.480469 1050.179688 1358.898438 1051.171875 1357.261719 C 1051.671875 1356.441406 1052.148438 1355.601562 1052.609375 1354.761719 C 1053.300781 1353.488281 1053.941406 1352.199219 1054.539062 1350.871094 C 1055.140625 1349.550781 1055.691406 1348.210938 1056.191406 1346.839844 C 1058.53125 1340.441406 1059.808594 1333.53125 1059.808594 1326.328125 L 1059.808594 1258.148438 L 1059.789062 1256.789062 L 1059.78125 1256.421875 L 1059.738281 1255.199219 L 1059.730469 1255.050781 L 1059.648438 1253.738281 L 1059.621094 1253.351562 L 1059.519531 1252.269531 L 1059.488281 1251.988281 L 1059.351562 1250.769531 L 1059.289062 1250.261719 L 1059.179688 1249.449219 L 1059.078125 1248.808594 L 1058.921875 1247.851562 L 1058.800781 1247.191406 L 1058.699219 1246.671875 C 1058.53125 1245.800781 1058.339844 1244.941406 1058.140625 1244.078125 L 1058.109375 1243.988281 C 1054.171875 1227.851562 1043.648438 1214.300781 1029.570312 1206.300781 "/>
<path fill-rule="nonzero" fill="rgb(93.440247%, 47.52655%, 71.502686%)" fill-opacity="1" d="M 1300.179688 1206.300781 C 1305.628906 1215.300781 1308.828125 1225.820312 1308.828125 1237.109375 L 1308.828125 1305.289062 C 1308.828125 1338.230469 1282.121094 1364.941406 1249.179688 1364.941406 L 1161.78125 1364.941406 C 1151.070312 1364.941406 1141.050781 1362.078125 1132.359375 1357.140625 C 1141.160156 1371.671875 1155.949219 1382.171875 1173.328125 1385.128906 L 1173.648438 1385.179688 L 1174.828125 1385.359375 L 1175.511719 1385.460938 L 1176.101562 1385.53125 L 1176.929688 1385.628906 L 1177.390625 1385.679688 L 1178.578125 1385.78125 L 1179.011719 1385.820312 L 1180.160156 1385.890625 L 1180.328125 1385.898438 L 1181.648438 1385.949219 L 1182.011719 1385.960938 L 1183.371094 1385.980469 L 1270.769531 1385.980469 C 1272.828125 1385.980469 1274.859375 1385.871094 1276.871094 1385.671875 C 1277.371094 1385.621094 1277.871094 1385.558594 1278.359375 1385.5 C 1280.851562 1385.179688 1283.289062 1384.710938 1285.671875 1384.101562 C 1288.53125 1383.359375 1291.308594 1382.421875 1293.988281 1381.289062 C 1294.878906 1380.910156 1295.761719 1380.511719 1296.628906 1380.089844 L 1297.921875 1379.449219 C 1299.640625 1378.570312 1301.300781 1377.609375 1302.921875 1376.578125 C 1303.71875 1376.058594 1304.519531 1375.53125 1305.300781 1374.96875 C 1306.078125 1374.421875 1306.839844 1373.839844 1307.589844 1373.25 C 1308.351562 1372.660156 1309.078125 1372.050781 1309.800781 1371.429688 C 1310.519531 1370.800781 1311.230469 1370.160156 1311.921875 1369.5 L 1312.949219 1368.5 C 1318.679688 1362.769531 1323.25 1355.871094 1326.28125 1348.199219 C 1328.949219 1341.429688 1330.421875 1334.050781 1330.421875 1326.328125 L 1330.421875 1258.070312 L 1330.398438 1256.820312 L 1330.390625 1256.398438 L 1330.351562 1255.269531 L 1330.328125 1255.011719 L 1330.261719 1253.769531 L 1330.21875 1253.320312 L 1330.128906 1252.328125 L 1330.101562 1251.949219 L 1329.960938 1250.789062 L 1329.890625 1250.238281 L 1329.789062 1249.5 L 1329.660156 1248.648438 L 1329.53125 1247.878906 L 1329.398438 1247.160156 L 1329.320312 1246.71875 C 1329.140625 1245.820312 1328.949219 1244.929688 1328.730469 1244.050781 L 1328.730469 1244.03125 C 1324.800781 1227.871094 1314.269531 1214.308594 1300.179688 1206.300781 "/>
<path fill-rule="nonzero" fill="rgb(93.440247%, 47.52655%, 71.502686%)" fill-opacity="1" d="M 1601 1256.421875 L 1600.949219 1255.199219 L 1600.941406 1255.050781 L 1600.859375 1253.738281 L 1600.828125 1253.351562 L 1600.738281 1252.269531 L 1600.710938 1251.988281 L 1600.570312 1250.769531 L 1600.5 1250.261719 L 1600.390625 1249.449219 L 1600.289062 1248.808594 L 1600.140625 1247.851562 L 1600.019531 1247.191406 L 1599.921875 1246.671875 C 1599.75 1245.800781 1599.558594 1244.941406 1599.351562 1244.078125 L 1599.328125 1243.988281 C 1595.390625 1227.851562 1584.871094 1214.300781 1570.789062 1206.300781 C 1576.238281 1215.300781 1579.441406 1225.820312 1579.441406 1237.109375 L 1579.441406 1305.289062 C 1579.441406 1338.230469 1552.730469 1364.941406 1519.789062 1364.941406 L 1432.390625 1364.941406 C 1421.679688 1364.941406 1411.660156 1362.078125 1402.96875 1357.140625 C 1411.769531 1371.671875 1426.558594 1382.171875 1443.929688 1385.128906 L 1444.261719 1385.179688 L 1445.421875 1385.359375 L 1446.121094 1385.460938 L 1446.699219 1385.53125 L 1447.539062 1385.628906 L 1447.980469 1385.679688 L 1449.191406 1385.78125 L 1449.609375 1385.820312 L 1450.769531 1385.890625 L 1450.941406 1385.898438 L 1452.261719 1385.949219 L 1452.621094 1385.960938 L 1453.96875 1385.980469 L 1541.378906 1385.980469 C 1574.320312 1385.980469 1601.019531 1359.269531 1601.019531 1326.328125 L 1601.019531 1258.148438 L 1601.011719 1256.789062 L 1601 1256.421875 "/>
<path fill-rule="nonzero" fill="rgb(93.440247%, 47.52655%, 71.502686%)" fill-opacity="1" d="M 789.175781 1504.589844 L 789.125 1503.28125 L 789.121094 1503.21875 L 789.039062 1501.871094 L 789.011719 1501.519531 L 788.90625 1500.359375 L 788.886719 1500.148438 L 788.742188 1498.890625 L 788.6875 1498.441406 L 788.5625 1497.550781 L 788.496094 1497.109375 L 788.308594 1495.980469 L 788.199219 1495.371094 L 788.085938 1494.78125 C 787.921875 1493.929688 787.734375 1493.089844 787.535156 1492.261719 L 787.496094 1492.089844 C 783.546875 1475.980469 773.035156 1462.441406 758.96875 1454.441406 C 764.421875 1463.449219 767.613281 1473.96875 767.613281 1485.261719 L 767.613281 1553.429688 C 767.613281 1586.378906 740.910156 1613.078125 707.964844 1613.078125 L 620.5625 1613.078125 C 609.855469 1613.078125 599.835938 1610.230469 591.148438 1605.289062 C 599.945312 1619.808594 614.726562 1630.308594 632.097656 1633.269531 L 632.457031 1633.328125 L 633.566406 1633.511719 L 634.300781 1633.609375 L 634.871094 1633.679688 L 635.730469 1633.78125 L 636.144531 1633.820312 L 637.367188 1633.929688 L 637.789062 1633.960938 L 638.953125 1634.039062 L 639.109375 1634.050781 L 640.441406 1634.101562 L 640.796875 1634.109375 L 642.148438 1634.121094 L 729.550781 1634.121094 C 738.304688 1634.121094 746.613281 1632.238281 754.101562 1628.851562 C 754.980469 1628.460938 755.851562 1628.039062 756.707031 1627.601562 C 757.566406 1627.160156 758.410156 1626.699219 759.242188 1626.21875 C 760.074219 1625.738281 760.894531 1625.238281 761.703125 1624.71875 C 762.511719 1624.210938 763.304688 1623.671875 764.082031 1623.121094 C 766.8125 1621.179688 769.371094 1619.011719 771.730469 1616.648438 C 776.789062 1611.589844 780.945312 1605.628906 783.933594 1599.019531 C 784.332031 1598.140625 784.707031 1597.25 785.0625 1596.351562 C 787.734375 1589.570312 789.203125 1582.191406 789.203125 1574.46875 L 789.203125 1506.300781 L 789.183594 1504.921875 L 789.175781 1504.589844 "/>
<path fill-rule="nonzero" fill="rgb(93.440247%, 47.52655%, 71.502686%)" fill-opacity="1" d="M 1029.570312 1454.441406 C 1035.03125 1463.449219 1038.21875 1473.96875 1038.21875 1485.261719 L 1038.21875 1553.429688 C 1038.21875 1586.378906 1011.519531 1613.078125 978.574219 1613.078125 L 891.171875 1613.078125 C 880.464844 1613.078125 870.441406 1610.230469 861.753906 1605.289062 C 870.554688 1619.820312 885.335938 1630.320312 902.710938 1633.28125 L 903.054688 1633.328125 L 904.191406 1633.511719 L 904.90625 1633.609375 L 905.480469 1633.679688 L 906.332031 1633.78125 L 906.761719 1633.820312 L 907.972656 1633.929688 L 908.398438 1633.960938 L 909.558594 1634.039062 L 909.71875 1634.050781 L 911.046875 1634.101562 L 911.40625 1634.109375 L 912.757812 1634.121094 L 1000.160156 1634.121094 C 1005.308594 1634.121094 1010.300781 1633.46875 1015.070312 1632.238281 C 1018.398438 1631.390625 1021.628906 1630.25 1024.710938 1628.851562 C 1026.46875 1628.058594 1028.191406 1627.179688 1029.851562 1626.21875 L 1031.089844 1625.488281 C 1035.601562 1622.75 1039.71875 1619.429688 1043.339844 1615.628906 C 1044.328125 1614.589844 1045.28125 1613.519531 1046.191406 1612.421875 C 1046.800781 1611.679688 1047.390625 1610.929688 1047.960938 1610.160156 C 1049.101562 1608.628906 1050.179688 1607.039062 1051.171875 1605.398438 C 1051.671875 1604.578125 1052.148438 1603.75 1052.609375 1602.910156 C 1053.300781 1601.640625 1053.941406 1600.339844 1054.539062 1599.019531 C 1055.140625 1597.699219 1055.691406 1596.351562 1056.191406 1594.980469 C 1058.53125 1588.589844 1059.808594 1581.679688 1059.808594 1574.46875 L 1059.808594 1506.300781 L 1059.789062 1504.941406 L 1059.78125 1504.570312 L 1059.738281 1503.351562 L 1059.730469 1503.199219 L 1059.648438 1501.890625 L 1059.621094 1501.488281 L 1059.519531 1500.421875 L 1059.488281 1500.140625 L 1059.351562 1498.921875 L 1059.289062 1498.410156 L 1059.179688 1497.589844 L 1059.078125 1496.949219 L 1058.921875 1496 L 1058.800781 1495.339844 L 1058.699219 1494.820312 C 1058.53125 1493.949219 1058.339844 1493.078125 1058.140625 1492.230469 L 1058.109375 1492.128906 C 1054.171875 1476 1043.648438 1462.449219 1029.570312 1454.441406 "/>
<path fill-rule="nonzero" fill="rgb(93.440247%, 47.52655%, 71.502686%)" fill-opacity="1" d="M 1300.179688 1454.441406 C 1305.628906 1463.449219 1308.828125 1473.96875 1308.828125 1485.261719 L 1308.828125 1553.429688 C 1308.828125 1586.378906 1282.121094 1613.078125 1249.179688 1613.078125 L 1161.78125 1613.078125 C 1151.070312 1613.078125 1141.050781 1610.230469 1132.359375 1605.289062 C 1141.160156 1619.820312 1155.949219 1630.320312 1173.328125 1633.28125 L 1173.648438 1633.328125 L 1174.828125 1633.511719 L 1175.511719 1633.609375 L 1176.101562 1633.679688 L 1176.929688 1633.78125 L 1177.390625 1633.820312 L 1178.578125 1633.929688 L 1179.011719 1633.960938 L 1180.160156 1634.039062 L 1180.328125 1634.050781 L 1181.648438 1634.101562 L 1182.011719 1634.109375 L 1183.371094 1634.121094 L 1270.769531 1634.121094 C 1272.828125 1634.121094 1274.859375 1634.019531 1276.871094 1633.808594 C 1277.371094 1633.761719 1277.871094 1633.710938 1278.359375 1633.640625 C 1280.851562 1633.328125 1283.289062 1632.859375 1285.671875 1632.238281 C 1288.53125 1631.511719 1291.308594 1630.570312 1293.988281 1629.429688 C 1294.878906 1629.058594 1295.761719 1628.660156 1296.628906 1628.238281 L 1297.921875 1627.601562 C 1299.640625 1626.71875 1301.300781 1625.761719 1302.921875 1624.71875 C 1303.71875 1624.210938 1304.519531 1623.671875 1305.300781 1623.121094 C 1306.078125 1622.558594 1306.839844 1621.988281 1307.589844 1621.398438 C 1308.351562 1620.808594 1309.078125 1620.199219 1309.800781 1619.578125 C 1310.519531 1618.949219 1311.230469 1618.308594 1311.921875 1617.648438 L 1312.949219 1616.648438 C 1318.679688 1610.921875 1323.25 1604.019531 1326.28125 1596.351562 C 1328.949219 1589.570312 1330.421875 1582.191406 1330.421875 1574.46875 L 1330.421875 1506.21875 L 1330.398438 1504.960938 L 1330.390625 1504.539062 L 1330.351562 1503.410156 L 1330.328125 1503.160156 L 1330.261719 1501.910156 L 1330.21875 1501.46875 L 1330.128906 1500.480469 L 1330.101562 1500.101562 L 1329.960938 1498.941406 L 1329.890625 1498.378906 L 1329.789062 1497.640625 L 1329.660156 1496.789062 L 1329.53125 1496.019531 L 1329.398438 1495.308594 L 1329.320312 1494.859375 C 1329.140625 1493.96875 1328.949219 1493.078125 1328.730469 1492.191406 L 1328.730469 1492.171875 C 1324.800781 1476.019531 1314.269531 1462.460938 1300.179688 1454.441406 "/>
<path fill-rule="nonzero" fill="rgb(93.440247%, 47.52655%, 71.502686%)" fill-opacity="1" d="M 789.183594 1753.058594 L 789.175781 1752.738281 L 789.125 1751.429688 L 789.121094 1751.359375 L 789.039062 1750.011719 L 789.011719 1749.671875 L 788.90625 1748.511719 L 788.886719 1748.300781 L 788.742188 1747.039062 L 788.6875 1746.589844 L 788.5625 1745.691406 L 788.496094 1745.25 L 788.308594 1744.128906 L 788.199219 1743.511719 L 788.085938 1742.921875 C 787.921875 1742.078125 787.734375 1741.238281 787.535156 1740.410156 L 787.496094 1740.238281 C 783.546875 1724.121094 773.035156 1710.589844 758.96875 1702.589844 C 764.421875 1711.589844 767.613281 1722.109375 767.613281 1733.410156 L 767.613281 1801.578125 C 767.613281 1834.53125 740.910156 1861.230469 707.964844 1861.230469 L 620.5625 1861.230469 C 609.855469 1861.230469 599.835938 1858.371094 591.148438 1853.429688 C 599.945312 1867.960938 614.726562 1878.460938 632.097656 1881.421875 L 632.457031 1881.480469 L 633.566406 1881.648438 L 634.300781 1881.75 L 634.871094 1881.828125 L 635.730469 1881.921875 L 636.144531 1881.96875 L 637.367188 1882.078125 L 637.789062 1882.109375 L 638.953125 1882.179688 L 639.109375 1882.191406 L 640.441406 1882.238281 L 640.796875 1882.25 L 642.148438 1882.269531 L 729.550781 1882.269531 C 738.304688 1882.269531 746.613281 1880.390625 754.101562 1877 C 754.980469 1876.601562 755.851562 1876.179688 756.707031 1875.738281 C 757.566406 1875.300781 758.410156 1874.839844 759.242188 1874.371094 C 760.074219 1873.890625 760.894531 1873.390625 761.703125 1872.871094 C 762.511719 1872.351562 763.304688 1871.820312 764.082031 1871.261719 C 766.8125 1869.320312 769.371094 1867.160156 771.730469 1864.800781 C 776.789062 1859.738281 780.945312 1853.769531 783.933594 1847.171875 C 784.332031 1846.289062 784.707031 1845.390625 785.0625 1844.488281 C 787.734375 1837.71875 789.203125 1830.339844 789.203125 1822.621094 L 789.203125 1754.449219 L 789.183594 1753.058594 "/>
<path fill-rule="nonzero" fill="rgb(93.440247%, 47.52655%, 71.502686%)" fill-opacity="1" d="M 1059.789062 1753.089844 L 1059.78125 1752.710938 L 1059.738281 1751.488281 L 1059.730469 1751.351562 L 1059.648438 1750.039062 L 1059.621094 1749.640625 L 1059.519531 1748.570312 L 1059.488281 1748.28125 L 1059.351562 1747.058594 L 1059.289062 1746.558594 L 1059.179688 1745.738281 L 1059.078125 1745.101562 L 1058.921875 1744.148438 L 1058.800781 1743.480469 L 1058.699219 1742.96875 C 1058.53125 1742.101562 1058.339844 1741.230469 1058.140625 1740.371094 L 1058.109375 1740.28125 C 1054.171875 1724.148438 1043.648438 1710.601562 1029.570312 1702.589844 C 1035.03125 1711.589844 1038.21875 1722.109375 1038.21875 1733.410156 L 1038.21875 1801.578125 C 1038.21875 1834.53125 1011.519531 1861.230469 978.574219 1861.230469 L 891.171875 1861.230469 C 880.464844 1861.230469 870.441406 1858.371094 861.753906 1853.429688 C 870.554688 1867.960938 885.335938 1878.460938 902.710938 1881.421875 L 903.054688 1881.480469 L 904.191406 1881.648438 L 904.90625 1881.75 L 905.480469 1881.828125 L 906.332031 1881.921875 L 906.761719 1881.96875 L 907.972656 1882.078125 L 908.398438 1882.109375 L 909.558594 1882.179688 L 909.71875 1882.191406 L 911.046875 1882.238281 L 911.40625 1882.25 L 912.757812 1882.269531 L 1000.160156 1882.269531 C 1005.308594 1882.269531 1010.300781 1881.621094 1015.070312 1880.390625 C 1018.398438 1879.53125 1021.628906 1878.390625 1024.710938 1877 C 1026.46875 1876.199219 1028.191406 1875.320312 1029.851562 1874.371094 L 1031.089844 1873.628906 C 1035.601562 1870.890625 1039.71875 1867.570312 1043.339844 1863.769531 C 1044.328125 1862.738281 1045.28125 1861.671875 1046.191406 1860.558594 C 1046.800781 1859.828125 1047.390625 1859.070312 1047.960938 1858.308594 C 1049.101562 1856.78125 1050.179688 1855.191406 1051.171875 1853.550781 C 1051.671875 1852.730469 1052.148438 1851.898438 1052.609375 1851.050781 C 1053.300781 1849.78125 1053.941406 1848.488281 1054.539062 1847.171875 C 1055.140625 1845.851562 1055.691406 1844.5 1056.191406 1843.128906 C 1058.53125 1836.730469 1059.808594 1829.828125 1059.808594 1822.621094 L 1059.808594 1754.449219 L 1059.789062 1753.089844 "/>
<path fill-rule="nonzero" fill="rgb(93.440247%, 47.52655%, 71.502686%)" fill-opacity="1" d="M 1300.179688 1702.589844 C 1305.628906 1711.589844 1308.828125 1722.109375 1308.828125 1733.410156 L 1308.828125 1801.578125 C 1308.828125 1834.53125 1282.121094 1861.230469 1249.179688 1861.230469 L 1161.78125 1861.230469 C 1151.070312 1861.230469 1141.050781 1858.371094 1132.359375 1853.429688 C 1141.160156 1867.96875 1155.949219 1878.46875 1173.328125 1881.421875 L 1173.648438 1881.480469 L 1174.828125 1881.660156 L 1175.511719 1881.75 L 1176.101562 1881.828125 L 1176.929688 1881.921875 L 1177.390625 1881.96875 L 1178.578125 1882.078125 L 1179.011719 1882.109375 L 1180.160156 1882.179688 L 1180.328125 1882.191406 L 1181.648438 1882.238281 L 1182.011719 1882.25 L 1183.371094 1882.269531 L 1270.769531 1882.269531 C 1272.828125 1882.269531 1274.859375 1882.171875 1276.871094 1881.960938 C 1277.371094 1881.910156 1277.871094 1881.851562 1278.359375 1881.789062 C 1280.851562 1881.46875 1283.289062 1881 1285.671875 1880.390625 C 1288.53125 1879.660156 1291.308594 1878.710938 1293.988281 1877.578125 C 1294.878906 1877.199219 1295.761719 1876.808594 1296.628906 1876.390625 L 1297.921875 1875.738281 C 1299.640625 1874.871094 1301.300781 1873.910156 1302.921875 1872.871094 C 1303.71875 1872.351562 1304.519531 1871.820312 1305.300781 1871.261719 C 1306.078125 1870.710938 1306.839844 1870.140625 1307.589844 1869.550781 C 1308.351562 1868.960938 1309.078125 1868.351562 1309.800781 1867.71875 C 1310.519531 1867.101562 1311.230469 1866.460938 1311.921875 1865.800781 L 1312.949219 1864.800781 C 1318.679688 1859.058594 1323.25 1852.171875 1326.28125 1844.488281 C 1328.949219 1837.71875 1330.421875 1830.339844 1330.421875 1822.621094 L 1330.421875 1754.371094 L 1330.398438 1753.109375 L 1330.390625 1752.691406 L 1330.351562 1751.558594 L 1330.328125 1751.300781 L 1330.261719 1750.058594 L 1330.21875 1749.609375 L 1330.128906 1748.621094 L 1330.101562 1748.238281 L 1329.960938 1747.078125 L 1329.890625 1746.53125 L 1329.789062 1745.789062 L 1329.660156 1744.941406 L 1329.53125 1744.171875 L 1329.398438 1743.449219 L 1329.320312 1743.011719 C 1329.140625 1742.109375 1328.949219 1741.21875 1328.730469 1740.339844 L 1328.730469 1740.320312 C 1324.800781 1724.171875 1314.269531 1710.601562 1300.179688 1702.589844 "/>
<path fill-rule="nonzero" fill="rgb(35%, 24%, 52%)" fill-opacity="1" d="M 1601 1501.941406 L 1600.949219 1500.679688 L 1600.941406 1500.550781 L 1600.859375 1499.410156 L 1600.828125 1499.011719 L 1600.730469 1497.929688 L 1600.679688 1497.46875 L 1600.578125 1496.621094 L 1600.511719 1496.070312 L 1600.410156 1495.378906 L 1600.171875 1493.949219 C 1597.179688 1477.261719 1586.550781 1463.070312 1571.859375 1454.710938 C 1576.289062 1462.671875 1578.820312 1471.738281 1578.820312 1481.378906 L 1578.820312 1803.128906 C 1578.820312 1834.570312 1552.109375 1860.070312 1519.171875 1860.070312 L 1431.769531 1860.070312 C 1420.621094 1860.070312 1410.21875 1857.089844 1401.289062 1852.011719 C 1408.46875 1864.910156 1420.699219 1874.871094 1435.460938 1879.46875 L 1435.671875 1879.539062 L 1436.53125 1879.789062 L 1436.621094 1879.820312 C 1437.148438 1879.96875 1437.679688 1880.121094 1438.21875 1880.261719 L 1438.660156 1880.371094 L 1439.371094 1880.550781 L 1440.050781 1880.710938 L 1440.878906 1880.890625 L 1441.691406 1881.058594 L 1442.230469 1881.160156 L 1443.101562 1881.320312 L 1443.5 1881.390625 L 1444.699219 1881.578125 L 1445.171875 1881.648438 L 1446.121094 1881.78125 L 1446.480469 1881.820312 L 1447.761719 1881.960938 L 1448.109375 1882 L 1449.148438 1882.078125 L 1449.53125 1882.109375 L 1450.851562 1882.191406 L 1451.070312 1882.199219 L 1452.238281 1882.238281 L 1452.589844 1882.25 L 1453.96875 1882.269531 L 1541.378906 1882.269531 C 1574.320312 1882.269531 1601.019531 1856.78125 1601.019531 1825.328125 L 1601.019531 1503.578125 L 1601.011719 1502.289062 L 1601 1501.941406 "/>
<path fill-rule="nonzero" fill="rgb(35%, 24%, 52%)" fill-opacity="1" d="M 1026.441406 984.898438 C 1033.46875 995.980469 1037.609375 1009.089844 1037.609375 1023.199219 C 1037.609375 1062.78125 1005.519531 1094.859375 965.941406 1094.859375 L 902.570312 1094.859375 C 888.46875 1094.859375 875.359375 1090.730469 864.273438 1083.699219 C 875.785156 1101.839844 895.179688 1114.5 917.671875 1116.71875 L 917.746094 1116.71875 L 918.773438 1116.820312 L 918.9375 1116.828125 L 919.949219 1116.898438 L 920.058594 1116.910156 L 921.175781 1116.980469 L 921.339844 1116.980469 L 922.253906 1117.019531 L 922.570312 1117.03125 L 923.367188 1117.050781 L 923.695312 1117.058594 L 988.144531 1117.058594 C 1027.71875 1117.058594 1059.808594 1084.980469 1059.808594 1045.398438 L 1059.800781 1044.320312 L 1059.789062 1043.988281 L 1059.769531 1043.199219 L 1059.761719 1042.878906 L 1059.730469 1041.960938 L 1059.71875 1041.808594 L 1059.660156 1040.691406 L 1059.648438 1040.578125 L 1059.570312 1039.570312 L 1059.558594 1039.398438 L 1059.46875 1038.371094 L 1059.460938 1038.300781 C 1057.238281 1015.808594 1044.589844 996.410156 1026.441406 984.898438 "/>
<path fill-rule="nonzero" fill="rgb(35%, 24%, 52%)" fill-opacity="1" d="M 1297.050781 984.898438 C 1304.078125 995.980469 1308.210938 1009.089844 1308.210938 1023.199219 C 1308.210938 1062.78125 1276.128906 1094.859375 1236.550781 1094.859375 L 1173.179688 1094.859375 C 1159.078125 1094.859375 1145.96875 1090.730469 1134.878906 1083.699219 C 1146.390625 1101.851562 1165.789062 1114.5 1188.28125 1116.71875 L 1188.351562 1116.71875 L 1189.390625 1116.820312 L 1189.539062 1116.828125 L 1190.558594 1116.898438 L 1190.671875 1116.910156 L 1191.789062 1116.980469 L 1191.941406 1116.980469 L 1192.859375 1117.019531 L 1193.179688 1117.03125 L 1193.96875 1117.050781 L 1194.300781 1117.058594 L 1258.75 1117.058594 C 1298.328125 1117.058594 1330.421875 1084.980469 1330.421875 1045.398438 L 1330.410156 1044.289062 L 1330.398438 1044.050781 L 1330.378906 1043.148438 L 1330.371094 1042.921875 L 1330.328125 1041.871094 L 1330.328125 1041.828125 L 1330.261719 1040.660156 L 1330.179688 1039.53125 L 1330.171875 1039.449219 C 1328.269531 1016.46875 1315.5 996.609375 1297.050781 984.898438 "/>
<path fill-rule="nonzero" fill="rgb(35%, 24%, 52%)" fill-opacity="1" d="M 1567.660156 984.898438 C 1574.691406 995.980469 1578.820312 1009.089844 1578.820312 1023.199219 C 1578.820312 1062.78125 1546.738281 1094.859375 1507.160156 1094.859375 L 1443.78125 1094.859375 C 1429.679688 1094.859375 1416.570312 1090.730469 1405.488281 1083.699219 C 1417 1101.851562 1436.398438 1114.5 1458.890625 1116.71875 L 1458.960938 1116.71875 L 1459.988281 1116.820312 L 1460.148438 1116.828125 L 1461.171875 1116.898438 L 1461.269531 1116.910156 L 1462.390625 1116.980469 L 1462.550781 1116.980469 L 1463.46875 1117.019531 L 1463.78125 1117.03125 L 1464.578125 1117.050781 L 1464.910156 1117.058594 L 1529.359375 1117.058594 C 1534 1117.058594 1538.53125 1116.621094 1542.929688 1115.78125 C 1544.101562 1115.558594 1545.261719 1115.300781 1546.410156 1115.019531 C 1549 1114.390625 1551.53125 1113.621094 1554 1112.71875 C 1555.921875 1112.011719 1557.800781 1111.230469 1559.640625 1110.371094 C 1560.171875 1110.128906 1560.691406 1109.871094 1561.210938 1109.621094 C 1563.28125 1108.578125 1565.300781 1107.460938 1567.261719 1106.238281 C 1568.230469 1105.628906 1569.191406 1104.988281 1570.140625 1104.339844 C 1570.609375 1104.011719 1571.078125 1103.679688 1571.539062 1103.339844 C 1573.871094 1101.648438 1576.078125 1099.820312 1578.179688 1097.871094 L 1578.800781 1097.28125 L 1580.03125 1096.070312 L 1581.238281 1094.839844 L 1582.410156 1093.589844 L 1583.550781 1092.300781 C 1584.109375 1091.648438 1584.660156 1090.988281 1585.199219 1090.320312 C 1585.921875 1089.421875 1586.621094 1088.511719 1587.300781 1087.589844 C 1587.640625 1087.121094 1587.96875 1086.648438 1588.300781 1086.179688 C 1588.789062 1085.46875 1589.269531 1084.75 1589.730469 1084.03125 C 1590.050781 1083.539062 1590.351562 1083.050781 1590.648438 1082.558594 L 1591.089844 1081.820312 C 1591.390625 1081.320312 1591.679688 1080.820312 1591.960938 1080.320312 L 1592.371094 1079.558594 C 1592.648438 1079.050781 1592.921875 1078.539062 1593.179688 1078.03125 C 1593.449219 1077.511719 1593.710938 1076.988281 1593.960938 1076.46875 C 1594.210938 1075.949219 1594.449219 1075.421875 1594.691406 1074.890625 C 1595.171875 1073.828125 1595.628906 1072.761719 1596.050781 1071.679688 C 1599.261719 1063.539062 1601.019531 1054.679688 1601.019531 1045.398438 L 1601.019531 1044.320312 L 1601.011719 1043.988281 L 1600.988281 1043.199219 L 1600.980469 1042.878906 L 1600.941406 1041.960938 L 1600.941406 1041.808594 L 1600.871094 1040.691406 L 1600.859375 1040.578125 L 1600.789062 1039.570312 L 1600.78125 1039.410156 C 1598.871094 1016.449219 1586.101562 996.601562 1567.660156 984.898438 "/>
<path fill-rule="nonzero" fill="rgb(35%, 24%, 52%)" fill-opacity="1" d="M 755.835938 984.898438 C 762.867188 995.980469 766.996094 1009.089844 766.996094 1023.199219 C 766.996094 1062.78125 734.914062 1094.859375 695.335938 1094.859375 L 631.960938 1094.859375 C 617.859375 1094.859375 604.75 1090.730469 593.664062 1083.699219 C 605.175781 1101.839844 624.574219 1114.5 647.0625 1116.71875 L 647.140625 1116.71875 L 648.164062 1116.808594 L 648.335938 1116.828125 L 649.335938 1116.898438 L 649.453125 1116.910156 L 650.570312 1116.980469 L 650.734375 1116.980469 L 651.648438 1117.019531 L 651.960938 1117.03125 L 652.757812 1117.050781 L 653.089844 1117.058594 L 717.539062 1117.058594 C 757.117188 1117.058594 789.203125 1084.980469 789.203125 1045.398438 L 789.199219 1045.21875 L 789.195312 1044.351562 L 789.183594 1043.941406 L 789.167969 1043.238281 L 789.15625 1042.851562 L 789.125 1042.058594 L 789.113281 1041.78125 L 789.050781 1040.710938 L 789.035156 1040.5 L 788.96875 1039.601562 L 788.949219 1039.371094 L 788.859375 1038.371094 L 788.855469 1038.300781 C 786.632812 1015.808594 773.984375 996.410156 755.835938 984.898438 "/>
<path fill-rule="nonzero" fill="rgb(46.530151%, 33.383179%, 64.317322%)" fill-opacity="1" d="M 640.222656 416.351562 C 633.640625 416.351562 627.210938 417.011719 620.996094 418.261719 C 612.980469 419.871094 605.324219 422.480469 598.160156 425.929688 C 565.707031 441.589844 543.316406 474.808594 543.316406 513.261719 L 543.316406 801.910156 C 543.316406 855.441406 586.707031 898.828125 640.230469 898.828125 L 1543.300781 898.828125 C 1596.820312 898.828125 1640.210938 855.441406 1640.210938 801.910156 L 1640.210938 513.261719 C 1640.210938 459.738281 1596.820312 416.351562 1543.300781 416.351562 L 640.222656 416.351562 "/>
<path fill-rule="nonzero" fill="rgb(70.19043%, 90.060425%, 91.021729%)" fill-opacity="1" d="M 625.960938 544.910156 L 625.960938 770.269531 C 625.960938 797.460938 648 819.5 675.1875 819.5 L 1508.339844 819.5 C 1535.519531 819.5 1557.558594 797.460938 1557.558594 770.269531 L 1557.558594 544.910156 C 1557.558594 517.71875 1535.519531 495.679688 1508.339844 495.679688 L 675.1875 495.679688 C 648 495.679688 625.960938 517.71875 625.960938 544.910156 "/>
<path fill-rule="nonzero" fill="rgb(85.011292%, 95.028687%, 96.072388%)" fill-opacity="1" d="M 675.023438 763.878906 C 685.097656 775.449219 699.832031 784.910156 716.992188 788.738281 C 736.597656 793.109375 756.476562 788.839844 771.691406 779.101562 C 813.546875 752.320312 818.703125 698.089844 800.738281 660.03125 C 790.714844 638.800781 766.414062 619.238281 735.800781 620.140625 C 727.558594 620.378906 718.964844 622 710.234375 625.238281 C 683.738281 635.070312 664.292969 655.839844 657.402344 677.929688 C 648.785156 705.550781 653.890625 739.601562 675.023438 763.878906 "/>
<path fill-rule="nonzero" fill="rgb(85.011292%, 95.028687%, 96.072388%)" fill-opacity="1" d="M 798.65625 634.949219 C 811.46875 637.800781 824.464844 635.011719 834.40625 628.648438 C 861.765625 611.140625 865.136719 575.699219 853.394531 550.828125 C 846.84375 536.949219 830.960938 524.160156 810.949219 524.75 C 805.5625 524.910156 799.945312 525.96875 794.238281 528.078125 C 776.921875 534.511719 764.214844 548.078125 759.710938 562.519531 C 754.078125 580.578125 757.414062 602.828125 771.226562 618.699219 C 777.808594 626.261719 787.441406 632.449219 798.65625 634.949219 "/>
<path fill-rule="nonzero" fill="rgb(85.011292%, 95.028687%, 96.072388%)" fill-opacity="1" d="M 820.085938 668.128906 C 815.671875 682.289062 818.285156 699.738281 829.117188 712.179688 C 834.28125 718.109375 841.835938 722.960938 850.628906 724.921875 C 860.675781 727.160156 870.867188 724.980469 878.664062 719.988281 C 900.117188 706.261719 902.757812 678.46875 893.550781 658.960938 C 888.414062 648.078125 875.960938 638.050781 860.269531 638.511719 C 856.042969 638.640625 851.640625 639.46875 847.164062 641.128906 C 833.585938 646.160156 823.617188 656.808594 820.085938 668.128906 "/>
</svg>
